<svg width="245" height="152" viewBox="0 0 245 152" fill="none" xmlns="http://www.w3.org/2000/svg">
<path d="M135.718 82.3375C133.675 82.3375 132.028 81.7115 130.776 80.4595C129.524 79.1417 128.536 77.4944 127.811 75.5176C127.152 73.475 126.691 71.4323 126.427 69.3896C126.163 67.2811 126.032 65.4361 126.032 63.8547C125.241 66.8198 124.22 69.7191 122.968 72.5525C121.782 75.3858 120.464 77.725 119.014 79.57C117.564 81.3491 115.983 82.2386 114.27 82.2386H114.171C112.59 82.2386 111.272 81.5138 110.218 80.0642C109.163 78.5487 108.373 76.5719 107.845 74.1339C107.318 71.6959 107.055 69.0602 107.055 66.2268V65.2384C107.055 62.6027 107.285 59.7035 107.747 56.5407C108.208 53.3119 109.031 50.2479 110.218 47.3487C111.404 44.4494 113.018 42.0773 115.061 40.2323C117.169 38.3215 119.838 37.366 123.066 37.366C124.318 37.366 125.439 37.6625 126.427 38.2556C127.481 38.7827 128.239 39.5734 128.7 40.6277C129.162 40.1005 129.787 39.6722 130.578 39.3428C131.369 39.0133 132.324 38.8486 133.445 38.8486C133.84 38.8486 134.268 38.8815 134.729 38.9474C135.257 39.0133 135.784 39.1122 136.311 39.2439C135.915 40.7595 135.454 42.8351 134.927 45.4708C134.4 48.1065 133.939 51.0057 133.543 54.1685C133.214 57.2655 133.049 60.2965 133.049 63.2617V63.657C133.049 64.909 133.115 66.3915 133.247 68.1047C133.379 69.8179 133.609 71.4982 133.939 73.1455C134.268 74.7928 134.729 76.1765 135.322 77.2967C135.915 78.4169 136.673 78.977 137.596 78.977H137.695C138.222 78.977 138.782 78.7134 139.375 78.1862C140.034 77.6591 140.726 76.6707 141.45 75.2211C142.439 73.3102 143.361 70.8393 144.218 67.8082C144.35 67.2152 144.613 66.9187 145.009 66.9187C145.338 66.9187 145.503 67.314 145.503 68.1047V68.5001C145.371 70.2133 144.91 72.1571 144.119 74.3315C143.328 76.506 142.208 78.3839 140.759 79.9653C139.375 81.5467 137.695 82.3375 135.718 82.3375ZM117.63 74.1339C118.685 74.1339 119.64 73.3761 120.497 71.8606C121.419 70.3451 122.243 68.5001 122.968 66.3256C123.692 64.1512 124.318 62.0427 124.846 60C125.636 56.969 126.163 53.905 126.427 50.808C126.691 47.6452 127.251 44.5483 128.107 41.5172C127.317 40.6606 126.427 40.2323 125.439 40.2323C123.989 40.2323 122.506 40.9571 120.991 42.4068C119.475 43.8564 118.289 45.5037 117.433 47.3487C116.378 49.6549 115.588 52.3565 115.061 55.4534C114.599 58.5504 114.369 61.5155 114.369 64.3489C114.369 65.0737 114.369 65.7985 114.369 66.5233C114.435 67.2481 114.501 67.94 114.566 68.5989C114.698 70.5757 115.061 71.9924 115.654 72.849C116.313 73.7056 116.971 74.1339 117.63 74.1339ZM146.503 82.634C144.724 82.634 143.834 81.4479 143.834 79.0758C143.834 78.6804 143.834 78.2521 143.834 77.7909C143.9 77.3296 143.966 76.8355 144.032 76.3083C144.229 75.1881 144.394 73.6067 144.526 71.5641C144.658 69.4555 144.757 67.1164 144.823 64.5466C144.954 61.9109 145.02 59.3081 145.02 56.7383C145.02 53.8391 144.921 51.1375 144.724 48.6336C144.592 46.0638 144.295 44.0541 143.834 42.6045C144.493 42.4727 145.218 42.1103 146.009 41.5172C146.799 40.9242 147.656 40.5288 148.578 40.3312C148.776 40.2653 149.04 40.2323 149.369 40.2323C150.489 40.2323 151.181 40.8254 151.445 42.0114C151.774 43.1975 151.939 44.6471 151.939 46.3603C151.939 47.5464 151.906 48.963 151.84 50.6104C151.84 52.1918 151.774 53.5755 151.642 54.7616C152.367 52.653 153.158 50.841 154.014 49.3255C154.871 47.744 155.794 46.2285 156.782 44.7789C158.166 42.6703 159.582 41.023 161.032 39.837C162.548 38.6509 163.964 38.0579 165.282 38.0579C166.863 38.0579 167.885 38.5521 168.346 39.5405C168.873 40.463 169.137 41.6161 169.137 42.9998C169.137 43.9223 169.071 44.9107 168.939 45.965C168.873 46.9533 168.807 47.9417 168.741 48.9301L168.148 57.7267L169.137 54.7616C169.862 52.653 170.652 50.841 171.509 49.3255C172.365 47.744 173.288 46.2285 174.276 44.7789C175.66 42.6703 177.077 41.023 178.526 39.837C180.042 38.6509 181.459 38.0579 182.776 38.0579C184.621 38.0579 185.807 38.6839 186.335 39.9358C186.862 41.1219 187.125 42.6045 187.125 44.3835C187.125 45.1084 187.092 45.8661 187.026 46.6568C187.026 47.3816 186.994 48.1394 186.928 48.9301C186.862 49.8526 186.73 51.7305 186.532 54.5639C186.335 57.3314 186.17 60.3295 186.038 63.5582C186.038 63.8217 186.005 64.3489 185.939 65.1396C185.939 65.9303 185.939 66.8198 185.939 67.8082C185.939 69.3237 186.005 70.9381 186.137 72.6513C186.335 74.2986 186.664 75.7153 187.125 76.9013C187.652 78.0874 188.377 78.6804 189.3 78.6804C190.552 78.6804 191.606 78.0874 192.463 76.9013C193.319 75.6494 194.011 74.2657 194.538 72.7501C195.131 71.2346 195.527 70.0486 195.724 69.192C195.988 68.4013 196.317 68.0059 196.713 68.0059C197.108 68.0059 197.306 68.4013 197.306 69.192V69.3896C197.306 69.8509 197.207 70.4439 197.009 71.1687C196.877 71.8935 196.68 72.6184 196.416 73.3432C195.625 75.7812 194.505 77.9227 193.056 79.7677C191.606 81.5467 189.497 82.4363 186.73 82.4363C184.49 82.4363 182.809 81.7444 181.689 80.3607C180.635 78.9111 179.91 77.1979 179.515 75.2211C179.185 73.2443 179.021 71.3664 179.021 69.5873V67.8082C179.152 64.909 179.251 62.4051 179.317 60.2965C179.383 58.1221 179.449 55.9147 179.515 53.6743C179.515 53.3449 179.515 52.9495 179.515 52.4883C179.581 52.027 179.614 51.4999 179.614 50.9069C179.614 49.6549 179.515 48.4359 179.317 47.2499C179.119 46.0638 178.658 45.4708 177.933 45.4708C177.406 45.4708 176.55 46.1956 175.364 47.6452C174.309 49.0948 173.222 51.1045 172.102 53.6743C171.048 56.2441 170.158 59.1763 169.433 62.471C168.708 65.7656 168.346 69.192 168.346 72.7501C168.346 74.0021 168.379 75.254 168.445 76.506C168.577 77.6921 168.774 78.9111 169.038 80.163C168.906 80.2289 168.643 80.3277 168.247 80.4595C167.918 80.5913 167.489 80.6572 166.962 80.6572C166.237 80.6572 165.48 80.4266 164.689 79.9653C163.898 79.5041 163.239 78.5487 162.712 77.099C162.251 75.7812 161.922 74.3974 161.724 72.9478C161.592 71.4323 161.526 69.8838 161.526 68.3024C161.526 65.9962 161.625 63.657 161.823 61.2849C162.02 58.9128 162.185 56.5736 162.317 54.2674V52.7848C162.317 51.9282 162.284 50.9728 162.218 49.9185C162.152 48.7983 161.954 47.8429 161.625 47.0522C161.361 46.1956 160.933 45.7673 160.34 45.7673C159.615 45.7673 158.792 46.3933 157.869 47.6452C156.749 49.0948 155.596 51.2363 154.41 54.0697C153.224 56.8372 152.235 60 151.445 63.5582C150.654 67.0505 150.259 70.6745 150.259 74.4304C150.259 76.6707 150.456 78.944 150.852 81.2502C150.127 81.6456 149.369 81.975 148.578 82.2386C147.854 82.5022 147.162 82.634 146.503 82.634Z" fill="white"/>
<path d="M81.0271 117.185C78.2044 117.185 75.8522 116.15 73.9705 114.08C72.1828 112.01 70.7715 109.234 69.7365 105.753C68.7956 102.272 68.09 98.4142 67.6195 94.1802C67.2432 89.8522 67.055 85.4771 67.055 81.0549C67.055 79.1732 67.055 77.3855 67.055 75.6919C67.1491 73.9042 67.2432 72.1166 67.3373 70.3289C66.8668 70.423 66.3493 70.47 65.7848 70.47C65.3144 70.47 64.8439 70.47 64.3735 70.47C61.5509 70.47 59.2927 70.1878 57.5992 69.6232C56.7524 69.341 55.9526 68.6353 55.1999 67.5063C54.5413 66.3772 53.9768 65.1541 53.5063 63.8368C53.13 62.5196 52.9418 61.5317 52.9418 60.8731C52.9418 60.4026 53.0359 60.1674 53.2241 60.1674H53.3652C55.6233 60.826 57.8814 61.3435 60.1395 61.7199C62.3976 62.0962 64.6558 62.2844 66.9139 62.2844H67.9018C68.09 59.9322 68.2781 57.8623 68.4663 56.0746C68.6545 54.1928 68.7956 52.6404 68.8897 51.4172C69.4542 45.5838 70.1129 40.0796 70.8656 34.9048C71.7124 29.6359 72.6062 24.9785 73.5471 20.9327C70.1599 20.4623 66.7257 20.0859 63.2444 19.8037C59.8573 19.4273 56.376 19.2392 52.8007 19.2392C50.0721 19.2392 47.2495 19.3803 44.3328 19.6626C41.5101 19.8507 38.6404 20.2741 35.7237 20.9327C29.9843 22.1559 25.1388 24.0376 21.1871 26.578C17.2354 29.1184 14.2717 31.894 12.2958 34.9048C10.32 37.9156 9.33204 40.8323 9.33204 43.655C9.33204 46.5717 10.5081 49.1121 12.8603 51.2761C15.3066 53.346 18.9761 54.381 23.8686 54.381C24.6213 54.381 25.374 54.381 26.1267 54.381C26.8794 54.2869 27.6792 54.1928 28.526 54.0987C31.0664 53.7224 34.1242 52.9226 37.6996 51.6995C41.2749 50.4763 44.9443 48.9709 48.7078 47.1833C52.5655 45.3015 55.9997 43.2786 59.0105 41.1146C59.2927 40.8323 59.8573 40.6912 60.7041 40.6912C61.0804 40.6912 61.2686 40.8323 61.2686 41.1146C61.2686 41.3969 61.0334 41.8673 60.5629 42.5259C60.1866 43.0904 59.4339 43.9372 58.3048 45.0663C53.6004 49.6766 48.0963 53.0638 41.7924 55.2278C35.5826 57.2977 29.4669 58.3327 23.4452 58.3327C22.5044 58.3327 21.5635 58.3327 20.6226 58.3327C19.7758 58.2386 18.929 58.1445 18.0822 58.0504C12.9074 57.4859 8.8616 55.5101 5.94487 52.1229C3.12224 48.7357 1.71092 44.8311 1.71092 40.4089C1.71092 37.1159 2.60475 33.7757 4.39242 30.3886C6.18009 26.9073 8.90864 23.7554 12.5781 20.9327C16.3416 18.016 21.1871 15.7109 27.1147 14.0173C33.0422 12.2296 40.1458 11.3358 48.4256 11.3358C52.3773 11.3358 56.6583 11.6651 61.2686 12.3237C65.8789 12.9823 70.5833 13.7821 75.3818 14.7229C75.4759 14.5348 75.5229 14.3466 75.5229 14.1584C75.617 13.8761 75.7111 13.6409 75.8052 13.4527C75.8993 13.1705 76.0874 13.0293 76.3697 13.0293C76.7461 12.9353 77.0754 12.8882 77.3576 12.8882C79.7098 12.8882 81.7327 13.2175 83.4263 13.8761C85.214 14.4407 86.1078 15.3815 86.1078 16.6988C90.2477 17.3574 94.2464 17.969 98.104 18.5335C102.056 19.0039 105.772 19.2392 109.253 19.2392C112.547 19.2392 115.51 18.9569 118.145 18.3924C119.744 18.016 120.967 17.3574 121.814 16.4165C122.661 15.3815 123.084 14.3936 123.084 13.4527C123.084 12.1355 122.473 11.1476 121.25 10.489C121.156 10.3949 121.109 10.2538 121.109 10.0656C121.109 9.59514 121.297 9.35992 121.673 9.35992C123.461 9.35992 124.966 10.0656 126.189 11.4769C127.507 12.8882 128.165 14.5348 128.165 16.4165C128.165 18.2042 127.318 19.9448 125.625 21.6384C124.025 23.332 121.203 24.414 117.157 24.8844C114.616 25.1667 112.029 25.3078 109.395 25.3078C105.349 25.3078 101.256 25.0726 97.1161 24.6022C93.0703 24.0376 88.9775 23.4261 84.8376 22.7674C83.8967 27.0955 82.7677 32.8819 81.4505 40.1267C80.2273 47.2774 79.0983 54.7574 78.0633 62.5667C83.144 62.4726 88.1307 62.1433 93.0233 61.5787C98.0099 60.9201 102.244 59.9322 105.725 58.615C106.196 58.3327 106.525 58.1916 106.713 58.1916C107.372 58.1916 107.748 58.4738 107.842 59.0384V59.3206C107.842 59.8851 107.513 60.3556 106.854 60.7319C106.196 61.1083 105.772 61.3906 105.584 61.5787C103.89 62.3314 101.491 63.1782 98.3863 64.1191C95.3755 65.06 92.0353 66.0009 88.3659 66.9417C84.6965 67.7885 80.98 68.5412 77.2165 69.1999C77.0283 71.8343 76.8401 74.3747 76.652 76.821C76.4638 79.2673 76.3227 81.7135 76.2286 84.1598C76.2286 85.1007 76.1815 86.0886 76.0874 87.1236C76.0874 88.1586 76.0874 89.2406 76.0874 90.3696C76.0874 93.5686 76.2286 96.8147 76.5108 100.108C76.8872 103.307 77.5458 105.988 78.4867 108.152C79.4276 110.316 80.8389 111.398 82.7206 111.398C83.6615 111.398 84.5083 111.116 85.261 110.552C86.0137 109.987 86.5312 109.375 86.8135 108.717C87.0957 107.964 87.425 107.588 87.8014 107.588C88.3659 107.588 88.6482 108.058 88.6482 108.999V109.281C88.6482 111.539 87.9425 113.421 86.5312 114.927C85.214 116.432 83.3793 117.185 81.0271 117.185Z" fill="white"/>
<mask id="path-3-outside-1_85_314" maskUnits="userSpaceOnUse" x="106.177" y="85.2662" width="138" height="35" fill="black">
<rect fill="white" x="106.177" y="85.2662" width="138" height="35"/>
<path d="M112.085 103.272V108.219C112.085 112.23 112.368 115.171 112.932 117.043C112.397 117.281 111.699 117.4 110.837 117.4C109.976 117.4 109.396 117.207 109.099 116.82C108.802 116.434 108.654 115.781 108.654 114.86C108.654 114.384 108.668 113.21 108.698 111.339C108.728 109.467 108.743 108.011 108.743 106.971V98.3694C108.743 94.1205 108.535 90.6591 108.119 87.985C111.298 87.7176 114.537 87.5839 117.835 87.5839C122.113 87.5839 124.52 87.8067 125.055 88.2524C125.322 88.4901 125.456 88.8764 125.456 89.4112C125.456 90.1243 125.337 90.7779 125.099 91.3722C123.406 90.7482 120.642 90.4363 116.809 90.4363C115.235 90.4363 113.601 90.4808 111.907 90.57C112.026 91.8773 112.085 93.6451 112.085 95.8735V100.464H115.606C118.072 100.464 119.855 100.405 120.954 100.286C121.073 100.523 121.133 100.91 121.133 101.445C121.133 102.306 120.895 102.826 120.419 103.004C119.944 103.183 118.845 103.272 117.121 103.272H112.085ZM131.164 109.511V102.291C131.164 99.2013 131.075 96.5124 130.896 94.2245C131.372 94.1651 131.951 94.1354 132.635 94.1354C134.001 94.1354 134.685 94.5811 134.685 95.4724C134.685 95.5913 134.655 96.0518 134.596 96.854C134.566 97.6563 134.521 98.6516 134.462 99.8401C134.402 101.029 134.373 102.158 134.373 103.227V106.302C134.373 110.997 134.462 113.834 134.64 114.815C135.65 114.874 136.438 114.904 137.002 114.904C140.716 114.904 143.123 114.637 144.222 114.102C144.401 114.666 144.49 115.231 144.49 115.795C144.49 116.271 144.386 116.613 144.178 116.82C143.732 117.147 141.816 117.311 138.428 117.311C137.775 117.311 136.69 117.296 135.175 117.266C133.689 117.266 132.902 117.266 132.813 117.266C132.129 117.236 131.669 117.073 131.431 116.776C131.194 116.479 131.075 115.989 131.075 115.305C131.075 114.949 131.09 114.102 131.119 112.765C131.149 111.428 131.164 110.343 131.164 109.511ZM161.687 107.862C161.123 106.525 159.919 103.361 158.077 98.3694C156.592 102.648 155.418 105.797 154.556 107.818C156.339 107.877 157.706 107.907 158.657 107.907C160.053 107.907 161.063 107.892 161.687 107.862ZM157.944 110.269C157.32 110.269 155.879 110.239 153.621 110.18C153.472 110.536 153.145 111.324 152.64 112.542C152.165 113.76 151.778 114.785 151.481 115.617C151.184 116.419 150.932 117.207 150.724 117.979C148.971 117.742 148.094 117.281 148.094 116.598C148.094 116.301 148.228 115.81 148.495 115.127C148.792 114.444 149.283 113.314 149.966 111.74C150.679 110.135 151.348 108.531 151.972 106.926C154.289 100.954 155.804 96.7649 156.517 94.3582C156.993 94.2691 157.543 94.2245 158.166 94.2245C158.82 94.2245 159.281 94.3285 159.548 94.5365C159.815 94.7148 160.113 95.2347 160.439 96.0964C160.677 96.7203 161.316 98.4585 162.356 101.311C163.426 104.133 164.257 106.302 164.852 107.818C166.278 111.324 167.674 114.369 169.041 116.954C168.209 117.37 167.541 117.578 167.036 117.578C166.144 117.578 165.535 117.281 165.208 116.687C165.03 116.271 164.153 114.102 162.579 110.18C160.023 110.239 158.478 110.269 157.944 110.269ZM186.11 94.1354C186.586 93.9868 187.135 93.9126 187.759 93.9126C188.502 93.9126 189.007 94.0463 189.275 94.3137C189.542 94.5811 189.676 95.0862 189.676 95.829C189.676 98.3248 188.829 101.667 187.135 105.857C185.442 110.046 183.674 113.27 181.832 115.528C181.148 116.33 180.599 116.835 180.183 117.043C179.767 117.251 179.143 117.355 178.311 117.355C177.954 117.355 177.642 117.326 177.375 117.266C176.602 113.552 175.28 109.303 173.408 104.52C171.537 99.7064 169.947 96.6758 168.64 95.4279C169.59 94.5959 170.556 94.18 171.537 94.18C171.982 94.18 172.354 94.3137 172.651 94.5811C172.948 94.8485 173.29 95.3536 173.676 96.0964C174.537 97.9088 175.592 100.642 176.84 104.297C178.088 107.922 179.069 111.042 179.782 113.656C181.386 111.606 182.857 108.739 184.194 105.055C185.561 101.37 186.244 98.1762 186.244 95.4724C186.244 94.9376 186.199 94.4919 186.11 94.1354ZM205.807 117.578C202.361 117.578 199.612 116.509 197.562 114.369C195.512 112.23 194.487 109.363 194.487 105.768C194.487 102.143 195.512 99.2607 197.562 97.1214C199.612 94.9822 202.361 93.9126 205.807 93.9126C209.284 93.9126 212.047 94.9822 214.097 97.1214C216.177 99.2607 217.217 102.143 217.217 105.768C217.217 109.363 216.177 112.23 214.097 114.369C212.047 116.509 209.284 117.578 205.807 117.578ZM213.651 106.392C213.651 104.698 213.413 103.123 212.938 101.667C212.463 100.211 211.601 98.9636 210.353 97.9237C209.135 96.8838 207.634 96.3638 205.852 96.3638C203.445 96.3638 201.529 97.1512 200.103 98.7259C198.706 100.301 198.008 102.306 198.008 104.743C198.008 106.525 198.246 108.174 198.721 109.69C199.196 111.205 200.043 112.497 201.261 113.567C202.479 114.637 203.995 115.171 205.807 115.171C208.303 115.171 210.234 114.369 211.601 112.765C212.968 111.131 213.651 109.006 213.651 106.392ZM238.54 114.146C239.194 114.8 239.907 115.127 240.679 115.127C240.828 115.127 241.14 115.097 241.615 115.038C241.823 115.454 241.927 115.84 241.927 116.197C241.927 117.118 240.961 117.578 239.03 117.578C238.169 117.578 237.337 117.266 236.534 116.642C235.732 115.989 234.96 115.067 234.217 113.879C233.474 112.661 232.895 111.651 232.479 110.848C232.092 110.016 231.617 108.962 231.053 107.684C230.488 107.565 230.206 107.268 230.206 106.793C230.206 106.496 230.31 106.05 230.518 105.456C231.171 105.604 231.736 105.679 232.211 105.679C233.578 105.679 234.692 105.263 235.554 104.431C236.416 103.569 236.846 102.41 236.846 100.954C236.846 99.231 236.371 98.0277 235.42 97.3443C234.469 96.6609 233.014 96.3192 231.053 96.3192C230.874 96.3192 229.983 96.3638 228.378 96.4529C228.497 97.8197 228.557 100.152 228.557 103.45V110.314C228.557 113.404 228.78 115.677 229.225 117.132C228.72 117.281 228.066 117.355 227.264 117.355C226.462 117.355 225.912 117.207 225.615 116.91C225.348 116.613 225.214 116.107 225.214 115.394C225.214 115.038 225.229 114.132 225.259 112.676C225.288 111.22 225.303 110.076 225.303 109.244V102.291C225.303 99.023 225.14 96.3638 224.813 94.3137C226.417 94.0463 228.289 93.9126 230.429 93.9126C237.084 93.9126 240.412 96.2449 240.412 100.91C240.412 102.752 239.877 104.252 238.807 105.411C237.767 106.57 236.371 107.342 234.618 107.729C236.43 111.205 237.738 113.344 238.54 114.146Z"/>
</mask>
<path d="M112.085 103.272V108.219C112.085 112.23 112.368 115.171 112.932 117.043C112.397 117.281 111.699 117.4 110.837 117.4C109.976 117.4 109.396 117.207 109.099 116.82C108.802 116.434 108.654 115.781 108.654 114.86C108.654 114.384 108.668 113.21 108.698 111.339C108.728 109.467 108.743 108.011 108.743 106.971V98.3694C108.743 94.1205 108.535 90.6591 108.119 87.985C111.298 87.7176 114.537 87.5839 117.835 87.5839C122.113 87.5839 124.52 87.8067 125.055 88.2524C125.322 88.4901 125.456 88.8764 125.456 89.4112C125.456 90.1243 125.337 90.7779 125.099 91.3722C123.406 90.7482 120.642 90.4363 116.809 90.4363C115.235 90.4363 113.601 90.4808 111.907 90.57C112.026 91.8773 112.085 93.6451 112.085 95.8735V100.464H115.606C118.072 100.464 119.855 100.405 120.954 100.286C121.073 100.523 121.133 100.91 121.133 101.445C121.133 102.306 120.895 102.826 120.419 103.004C119.944 103.183 118.845 103.272 117.121 103.272H112.085ZM131.164 109.511V102.291C131.164 99.2013 131.075 96.5124 130.896 94.2245C131.372 94.1651 131.951 94.1354 132.635 94.1354C134.001 94.1354 134.685 94.5811 134.685 95.4724C134.685 95.5913 134.655 96.0518 134.596 96.854C134.566 97.6563 134.521 98.6516 134.462 99.8401C134.402 101.029 134.373 102.158 134.373 103.227V106.302C134.373 110.997 134.462 113.834 134.64 114.815C135.65 114.874 136.438 114.904 137.002 114.904C140.716 114.904 143.123 114.637 144.222 114.102C144.401 114.666 144.49 115.231 144.49 115.795C144.49 116.271 144.386 116.613 144.178 116.82C143.732 117.147 141.816 117.311 138.428 117.311C137.775 117.311 136.69 117.296 135.175 117.266C133.689 117.266 132.902 117.266 132.813 117.266C132.129 117.236 131.669 117.073 131.431 116.776C131.194 116.479 131.075 115.989 131.075 115.305C131.075 114.949 131.09 114.102 131.119 112.765C131.149 111.428 131.164 110.343 131.164 109.511ZM161.687 107.862C161.123 106.525 159.919 103.361 158.077 98.3694C156.592 102.648 155.418 105.797 154.556 107.818C156.339 107.877 157.706 107.907 158.657 107.907C160.053 107.907 161.063 107.892 161.687 107.862ZM157.944 110.269C157.32 110.269 155.879 110.239 153.621 110.18C153.472 110.536 153.145 111.324 152.64 112.542C152.165 113.76 151.778 114.785 151.481 115.617C151.184 116.419 150.932 117.207 150.724 117.979C148.971 117.742 148.094 117.281 148.094 116.598C148.094 116.301 148.228 115.81 148.495 115.127C148.792 114.444 149.283 113.314 149.966 111.74C150.679 110.135 151.348 108.531 151.972 106.926C154.289 100.954 155.804 96.7649 156.517 94.3582C156.993 94.2691 157.543 94.2245 158.166 94.2245C158.82 94.2245 159.281 94.3285 159.548 94.5365C159.815 94.7148 160.113 95.2347 160.439 96.0964C160.677 96.7203 161.316 98.4585 162.356 101.311C163.426 104.133 164.257 106.302 164.852 107.818C166.278 111.324 167.674 114.369 169.041 116.954C168.209 117.37 167.541 117.578 167.036 117.578C166.144 117.578 165.535 117.281 165.208 116.687C165.03 116.271 164.153 114.102 162.579 110.18C160.023 110.239 158.478 110.269 157.944 110.269ZM186.11 94.1354C186.586 93.9868 187.135 93.9126 187.759 93.9126C188.502 93.9126 189.007 94.0463 189.275 94.3137C189.542 94.5811 189.676 95.0862 189.676 95.829C189.676 98.3248 188.829 101.667 187.135 105.857C185.442 110.046 183.674 113.27 181.832 115.528C181.148 116.33 180.599 116.835 180.183 117.043C179.767 117.251 179.143 117.355 178.311 117.355C177.954 117.355 177.642 117.326 177.375 117.266C176.602 113.552 175.28 109.303 173.408 104.52C171.537 99.7064 169.947 96.6758 168.64 95.4279C169.59 94.5959 170.556 94.18 171.537 94.18C171.982 94.18 172.354 94.3137 172.651 94.5811C172.948 94.8485 173.29 95.3536 173.676 96.0964C174.537 97.9088 175.592 100.642 176.84 104.297C178.088 107.922 179.069 111.042 179.782 113.656C181.386 111.606 182.857 108.739 184.194 105.055C185.561 101.37 186.244 98.1762 186.244 95.4724C186.244 94.9376 186.199 94.4919 186.11 94.1354ZM205.807 117.578C202.361 117.578 199.612 116.509 197.562 114.369C195.512 112.23 194.487 109.363 194.487 105.768C194.487 102.143 195.512 99.2607 197.562 97.1214C199.612 94.9822 202.361 93.9126 205.807 93.9126C209.284 93.9126 212.047 94.9822 214.097 97.1214C216.177 99.2607 217.217 102.143 217.217 105.768C217.217 109.363 216.177 112.23 214.097 114.369C212.047 116.509 209.284 117.578 205.807 117.578ZM213.651 106.392C213.651 104.698 213.413 103.123 212.938 101.667C212.463 100.211 211.601 98.9636 210.353 97.9237C209.135 96.8838 207.634 96.3638 205.852 96.3638C203.445 96.3638 201.529 97.1512 200.103 98.7259C198.706 100.301 198.008 102.306 198.008 104.743C198.008 106.525 198.246 108.174 198.721 109.69C199.196 111.205 200.043 112.497 201.261 113.567C202.479 114.637 203.995 115.171 205.807 115.171C208.303 115.171 210.234 114.369 211.601 112.765C212.968 111.131 213.651 109.006 213.651 106.392ZM238.54 114.146C239.194 114.8 239.907 115.127 240.679 115.127C240.828 115.127 241.14 115.097 241.615 115.038C241.823 115.454 241.927 115.84 241.927 116.197C241.927 117.118 240.961 117.578 239.03 117.578C238.169 117.578 237.337 117.266 236.534 116.642C235.732 115.989 234.96 115.067 234.217 113.879C233.474 112.661 232.895 111.651 232.479 110.848C232.092 110.016 231.617 108.962 231.053 107.684C230.488 107.565 230.206 107.268 230.206 106.793C230.206 106.496 230.31 106.05 230.518 105.456C231.171 105.604 231.736 105.679 232.211 105.679C233.578 105.679 234.692 105.263 235.554 104.431C236.416 103.569 236.846 102.41 236.846 100.954C236.846 99.231 236.371 98.0277 235.42 97.3443C234.469 96.6609 233.014 96.3192 231.053 96.3192C230.874 96.3192 229.983 96.3638 228.378 96.4529C228.497 97.8197 228.557 100.152 228.557 103.45V110.314C228.557 113.404 228.78 115.677 229.225 117.132C228.72 117.281 228.066 117.355 227.264 117.355C226.462 117.355 225.912 117.207 225.615 116.91C225.348 116.613 225.214 116.107 225.214 115.394C225.214 115.038 225.229 114.132 225.259 112.676C225.288 111.22 225.303 110.076 225.303 109.244V102.291C225.303 99.023 225.14 96.3638 224.813 94.3137C226.417 94.0463 228.289 93.9126 230.429 93.9126C237.084 93.9126 240.412 96.2449 240.412 100.91C240.412 102.752 239.877 104.252 238.807 105.411C237.767 106.57 236.371 107.342 234.618 107.729C236.43 111.205 237.738 113.344 238.54 114.146Z" fill="white"/>
<path d="M112.085 103.272V101.786H110.6V103.272H112.085ZM112.932 117.043L113.535 118.401L114.733 117.869L114.354 116.614L112.932 117.043ZM109.099 116.82L110.277 115.915L109.099 116.82ZM108.698 111.339L110.184 111.362L108.698 111.339ZM108.119 87.985L107.994 86.5046L106.406 86.6383L106.651 88.2134L108.119 87.985ZM125.055 88.2524L126.042 87.1421L126.024 87.1263L126.006 87.1112L125.055 88.2524ZM125.099 91.3722L124.586 92.7662L125.942 93.2658L126.478 91.9239L125.099 91.3722ZM111.907 90.57L111.829 89.0864L110.288 89.1675L110.428 90.7045L111.907 90.57ZM112.085 100.464H110.6V101.95H112.085V100.464ZM120.954 100.286L122.283 99.6214L121.821 98.6978L120.795 98.8088L120.954 100.286ZM120.419 103.004L119.898 101.613L119.898 101.613L120.419 103.004ZM110.6 103.272V108.219H113.571V103.272H110.6ZM110.6 108.219C110.6 112.256 110.879 115.381 111.51 117.472L114.354 116.614C113.856 114.962 113.571 112.204 113.571 108.219H110.6ZM112.329 115.686C112.052 115.809 111.581 115.914 110.837 115.914V118.885C111.817 118.885 112.743 118.753 113.535 118.401L112.329 115.686ZM110.837 115.914C110.506 115.914 110.316 115.876 110.226 115.846C110.146 115.819 110.204 115.82 110.277 115.915L107.922 117.726C108.657 118.682 109.855 118.885 110.837 118.885V115.914ZM110.277 115.915C110.299 115.943 110.257 115.903 110.214 115.711C110.171 115.524 110.139 115.247 110.139 114.86H107.168C107.168 115.857 107.312 116.934 107.922 117.726L110.277 115.915ZM110.139 114.86C110.139 114.399 110.154 113.238 110.184 111.362L107.213 111.315C107.183 113.183 107.168 114.37 107.168 114.86H110.139ZM110.184 111.362C110.213 109.488 110.228 108.023 110.228 106.971H107.257C107.257 107.999 107.242 109.446 107.213 111.315L110.184 111.362ZM110.228 106.971V98.3694H107.257V106.971H110.228ZM110.228 98.3694C110.228 94.0819 110.019 90.5362 109.587 87.7567L106.651 88.2134C107.05 90.782 107.257 94.1592 107.257 98.3694H110.228ZM108.243 89.4654C111.38 89.2016 114.577 89.0695 117.835 89.0695V86.0983C114.496 86.0983 111.216 86.2336 107.994 86.5046L108.243 89.4654ZM117.835 89.0695C119.957 89.0695 121.576 89.1251 122.711 89.2303C123.282 89.2831 123.695 89.3453 123.973 89.4086C124.319 89.4873 124.262 89.5261 124.104 89.3937L126.006 87.1112C125.579 86.7559 125.021 86.5997 124.632 86.5113C124.175 86.4074 123.618 86.3304 122.985 86.2718C121.715 86.1541 119.991 86.0983 117.835 86.0983V89.0695ZM124.068 89.3628C124.03 89.3291 124.001 89.2935 123.98 89.2619C123.961 89.2311 123.953 89.2101 123.952 89.2063C123.95 89.2032 123.955 89.2165 123.96 89.2513C123.965 89.2863 123.97 89.3386 123.97 89.4112H126.941C126.941 88.6637 126.756 87.777 126.042 87.1421L124.068 89.3628ZM123.97 89.4112C123.97 89.9568 123.88 90.4206 123.72 90.8204L126.478 91.9239C126.794 91.1352 126.941 90.2917 126.941 89.4112H123.97ZM125.613 89.9782C123.656 89.2571 120.666 88.9507 116.809 88.9507V91.9219C120.619 91.9219 123.156 92.2393 124.586 92.7662L125.613 89.9782ZM116.809 88.9507C115.207 88.9507 113.547 88.996 111.829 89.0864L111.985 92.0535C113.655 91.9656 115.263 91.9219 116.809 91.9219V88.9507ZM110.428 90.7045C110.54 91.9469 110.6 93.6638 110.6 95.8735H113.571C113.571 93.6265 113.511 91.8077 113.387 90.4355L110.428 90.7045ZM110.6 95.8735V100.464H113.571V95.8735H110.6ZM112.085 101.95H115.606V98.9784H112.085V101.95ZM115.606 101.95C118.077 101.95 119.929 101.891 121.114 101.763L120.795 98.8088C119.781 98.9184 118.067 98.9784 115.606 98.9784V101.95ZM119.626 100.95C119.592 100.883 119.603 100.874 119.62 100.98C119.635 101.076 119.647 101.227 119.647 101.445H122.618C122.618 100.867 122.565 100.185 122.283 99.6214L119.626 100.95ZM119.647 101.445C119.647 101.594 119.637 101.702 119.624 101.775C119.611 101.849 119.599 101.872 119.603 101.863C119.609 101.851 119.633 101.803 119.692 101.745C119.753 101.685 119.827 101.64 119.898 101.613L120.941 104.395C122.343 103.87 122.618 102.446 122.618 101.445H119.647ZM119.898 101.613C119.903 101.612 119.847 101.631 119.697 101.657C119.556 101.681 119.365 101.704 119.118 101.724C118.624 101.764 117.963 101.786 117.121 101.786V104.757C118.004 104.757 118.753 104.735 119.359 104.686C119.924 104.64 120.496 104.563 120.941 104.395L119.898 101.613ZM117.121 101.786H112.085V104.757H117.121V101.786ZM130.896 94.2245L130.712 92.7504L129.305 92.9263L129.415 94.3399L130.896 94.2245ZM134.596 96.854L133.114 96.7443L133.112 96.7716L133.111 96.7991L134.596 96.854ZM134.462 99.8401L132.978 99.7659L134.462 99.8401ZM134.64 114.815L133.179 115.081L133.387 116.229L134.553 116.298L134.64 114.815ZM144.222 114.102L145.639 113.654L145.12 112.013L143.572 112.766L144.222 114.102ZM144.178 116.82L145.056 118.018L145.148 117.951L145.228 117.871L144.178 116.82ZM135.175 117.266L135.204 115.781L135.19 115.781H135.175V117.266ZM132.813 117.266L132.748 118.75L132.781 118.752H132.813V117.266ZM131.431 116.776L132.591 115.848L131.431 116.776ZM131.119 112.765L132.605 112.798L131.119 112.765ZM132.649 109.511V102.291H129.678V109.511H132.649ZM132.649 102.291C132.649 99.175 132.56 96.4459 132.378 94.1091L129.415 94.3399C129.59 96.5788 129.678 99.2276 129.678 102.291H132.649ZM131.081 95.6987C131.475 95.6493 131.989 95.621 132.635 95.621V92.6498C131.913 92.6498 131.268 92.6809 130.712 92.7504L131.081 95.6987ZM132.635 95.621C132.9 95.621 133.089 95.6431 133.216 95.6707C133.344 95.6984 133.378 95.725 133.361 95.714C133.334 95.6965 133.276 95.647 133.234 95.5636C133.194 95.4856 133.199 95.4409 133.199 95.4724H136.17C136.17 94.5799 135.79 93.7512 134.984 93.2253C134.287 92.7712 133.432 92.6498 132.635 92.6498V95.621ZM133.199 95.4724C133.199 95.46 133.199 95.4768 133.196 95.5496C133.192 95.6128 133.187 95.6994 133.18 95.8113C133.166 96.0347 133.144 96.345 133.114 96.7443L136.077 96.9638C136.134 96.1995 136.17 95.6621 136.17 95.4724H133.199ZM133.111 96.7991C133.082 97.5926 133.037 98.5811 132.978 99.7659L135.946 99.9143C136.005 98.7221 136.05 97.7199 136.08 96.909L133.111 96.7991ZM132.978 99.7659C132.918 100.976 132.887 102.13 132.887 103.227H135.858C135.858 102.185 135.887 101.081 135.946 99.9143L132.978 99.7659ZM132.887 103.227V106.302H135.858V103.227H132.887ZM132.887 106.302C132.887 108.657 132.909 110.557 132.955 111.998C132.999 113.402 133.067 114.465 133.179 115.081L136.102 114.549C136.035 114.184 135.969 113.338 135.924 111.905C135.881 110.508 135.858 108.643 135.858 106.302H132.887ZM134.553 116.298C135.573 116.358 136.394 116.39 137.002 116.39V113.418C136.481 113.418 135.727 113.391 134.727 113.332L134.553 116.298ZM137.002 116.39C138.888 116.39 140.478 116.322 141.757 116.18C142.997 116.042 144.084 115.821 144.872 115.438L143.572 112.766C143.261 112.917 142.595 113.097 141.429 113.227C140.3 113.352 138.83 113.418 137.002 113.418V116.39ZM142.806 114.549C142.94 114.976 143.004 115.39 143.004 115.795H145.975C145.975 115.072 145.861 114.357 145.639 113.654L142.806 114.549ZM143.004 115.795C143.004 115.861 143 115.908 142.996 115.939C142.992 115.971 142.989 115.981 142.99 115.976C142.994 115.963 143.026 115.872 143.127 115.77L145.228 117.871C145.845 117.254 145.975 116.432 145.975 115.795H143.004ZM143.299 115.623C143.467 115.5 143.542 115.523 143.266 115.58C143.052 115.625 142.73 115.67 142.28 115.708C141.384 115.784 140.106 115.825 138.428 115.825V118.796C140.138 118.796 141.512 118.755 142.532 118.668C143.04 118.625 143.493 118.568 143.87 118.49C144.184 118.424 144.666 118.305 145.056 118.018L143.299 115.623ZM138.428 115.825C137.791 115.825 136.719 115.811 135.204 115.781L135.146 118.751C136.662 118.781 137.759 118.796 138.428 118.796V115.825ZM135.175 115.781C135.172 115.781 135.169 115.781 135.166 115.781C135.163 115.781 135.16 115.781 135.158 115.781C135.155 115.781 135.152 115.781 135.149 115.781C135.146 115.781 135.143 115.781 135.14 115.781C135.137 115.781 135.135 115.781 135.132 115.781C135.129 115.781 135.126 115.781 135.123 115.781C135.12 115.781 135.117 115.781 135.114 115.781C135.112 115.781 135.109 115.781 135.106 115.781C135.103 115.781 135.1 115.781 135.097 115.781C135.094 115.781 135.092 115.781 135.089 115.781C135.086 115.781 135.083 115.781 135.08 115.781C135.077 115.781 135.075 115.781 135.072 115.781C135.069 115.781 135.066 115.781 135.063 115.781C135.06 115.781 135.058 115.781 135.055 115.781C135.052 115.781 135.049 115.781 135.046 115.781C135.043 115.781 135.041 115.781 135.038 115.781C135.035 115.781 135.032 115.781 135.029 115.781C135.026 115.781 135.024 115.781 135.021 115.781C135.018 115.781 135.015 115.781 135.012 115.781C135.01 115.781 135.007 115.781 135.004 115.781C135.001 115.781 134.998 115.781 134.996 115.781C134.993 115.781 134.99 115.781 134.987 115.781C134.985 115.781 134.982 115.781 134.979 115.781C134.976 115.781 134.973 115.781 134.971 115.781C134.968 115.781 134.965 115.781 134.962 115.781C134.96 115.781 134.957 115.781 134.954 115.781C134.951 115.781 134.949 115.781 134.946 115.781C134.943 115.781 134.94 115.781 134.938 115.781C134.935 115.781 134.932 115.781 134.929 115.781C134.927 115.781 134.924 115.781 134.921 115.781C134.918 115.781 134.916 115.781 134.913 115.781C134.91 115.781 134.907 115.781 134.905 115.781C134.902 115.781 134.899 115.781 134.896 115.781C134.894 115.781 134.891 115.781 134.888 115.781C134.886 115.781 134.883 115.781 134.88 115.781C134.877 115.781 134.875 115.781 134.872 115.781C134.869 115.781 134.867 115.781 134.864 115.781C134.861 115.781 134.858 115.781 134.856 115.781C134.853 115.781 134.85 115.781 134.848 115.781C134.845 115.781 134.842 115.781 134.84 115.781C134.837 115.781 134.834 115.781 134.832 115.781C134.829 115.781 134.826 115.781 134.823 115.781C134.821 115.781 134.818 115.781 134.815 115.781C134.813 115.781 134.81 115.781 134.807 115.781C134.805 115.781 134.802 115.781 134.799 115.781C134.797 115.781 134.794 115.781 134.791 115.781C134.789 115.781 134.786 115.781 134.784 115.781C134.781 115.781 134.778 115.781 134.776 115.781C134.773 115.781 134.77 115.781 134.768 115.781C134.765 115.781 134.762 115.781 134.76 115.781C134.757 115.781 134.754 115.781 134.752 115.781C134.749 115.781 134.747 115.781 134.744 115.781C134.741 115.781 134.739 115.781 134.736 115.781C134.733 115.781 134.731 115.781 134.728 115.781C134.726 115.781 134.723 115.781 134.72 115.781C134.718 115.781 134.715 115.781 134.713 115.781C134.71 115.781 134.707 115.781 134.705 115.781C134.702 115.781 134.7 115.781 134.697 115.781C134.694 115.781 134.692 115.781 134.689 115.781C134.687 115.781 134.684 115.781 134.681 115.781C134.679 115.781 134.676 115.781 134.674 115.781C134.671 115.781 134.669 115.781 134.666 115.781C134.663 115.781 134.661 115.781 134.658 115.781C134.656 115.781 134.653 115.781 134.651 115.781C134.648 115.781 134.645 115.781 134.643 115.781C134.64 115.781 134.638 115.781 134.635 115.781C134.633 115.781 134.63 115.781 134.628 115.781C134.625 115.781 134.623 115.781 134.62 115.781C134.617 115.781 134.615 115.781 134.612 115.781C134.61 115.781 134.607 115.781 134.605 115.781C134.602 115.781 134.6 115.781 134.597 115.781C134.595 115.781 134.592 115.781 134.59 115.781C134.587 115.781 134.585 115.781 134.582 115.781C134.58 115.781 134.577 115.781 134.575 115.781C134.572 115.781 134.57 115.781 134.567 115.781C134.565 115.781 134.562 115.781 134.56 115.781C134.557 115.781 134.555 115.781 134.552 115.781C134.55 115.781 134.547 115.781 134.545 115.781C134.542 115.781 134.54 115.781 134.537 115.781C134.535 115.781 134.532 115.781 134.53 115.781C134.527 115.781 134.525 115.781 134.522 115.781C134.52 115.781 134.517 115.781 134.515 115.781C134.512 115.781 134.51 115.781 134.508 115.781C134.505 115.781 134.503 115.781 134.5 115.781C134.498 115.781 134.495 115.781 134.493 115.781C134.49 115.781 134.488 115.781 134.485 115.781C134.483 115.781 134.481 115.781 134.478 115.781C134.476 115.781 134.473 115.781 134.471 115.781C134.468 115.781 134.466 115.781 134.464 115.781C134.461 115.781 134.459 115.781 134.456 115.781C134.454 115.781 134.451 115.781 134.449 115.781C134.447 115.781 134.444 115.781 134.442 115.781C134.439 115.781 134.437 115.781 134.435 115.781C134.432 115.781 134.43 115.781 134.427 115.781C134.425 115.781 134.423 115.781 134.42 115.781C134.418 115.781 134.415 115.781 134.413 115.781C134.411 115.781 134.408 115.781 134.406 115.781C134.403 115.781 134.401 115.781 134.399 115.781C134.396 115.781 134.394 115.781 134.392 115.781C134.389 115.781 134.387 115.781 134.384 115.781C134.382 115.781 134.38 115.781 134.377 115.781C134.375 115.781 134.373 115.781 134.37 115.781C134.368 115.781 134.366 115.781 134.363 115.781C134.361 115.781 134.358 115.781 134.356 115.781C134.354 115.781 134.351 115.781 134.349 115.781C134.347 115.781 134.344 115.781 134.342 115.781C134.34 115.781 134.337 115.781 134.335 115.781C134.333 115.781 134.33 115.781 134.328 115.781C134.326 115.781 134.323 115.781 134.321 115.781C134.319 115.781 134.316 115.781 134.314 115.781C134.312 115.781 134.31 115.781 134.307 115.781C134.305 115.781 134.303 115.781 134.3 115.781C134.298 115.781 134.296 115.781 134.293 115.781C134.291 115.781 134.289 115.781 134.286 115.781C134.284 115.781 134.282 115.781 134.28 115.781C134.277 115.781 134.275 115.781 134.273 115.781C134.27 115.781 134.268 115.781 134.266 115.781C134.264 115.781 134.261 115.781 134.259 115.781C134.257 115.781 134.255 115.781 134.252 115.781C134.25 115.781 134.248 115.781 134.245 115.781C134.243 115.781 134.241 115.781 134.239 115.781C134.236 115.781 134.234 115.781 134.232 115.781C134.23 115.781 134.227 115.781 134.225 115.781C134.223 115.781 134.221 115.781 134.218 115.781C134.216 115.781 134.214 115.781 134.212 115.781C134.21 115.781 134.207 115.781 134.205 115.781C134.203 115.781 134.201 115.781 134.198 115.781C134.196 115.781 134.194 115.781 134.192 115.781C134.189 115.781 134.187 115.781 134.185 115.781C134.183 115.781 134.181 115.781 134.178 115.781C134.176 115.781 134.174 115.781 134.172 115.781C134.17 115.781 134.167 115.781 134.165 115.781C134.163 115.781 134.161 115.781 134.159 115.781C134.156 115.781 134.154 115.781 134.152 115.781C134.15 115.781 134.148 115.781 134.145 115.781C134.143 115.781 134.141 115.781 134.139 115.781C134.137 115.781 134.135 115.781 134.132 115.781C134.13 115.781 134.128 115.781 134.126 115.781C134.124 115.781 134.122 115.781 134.119 115.781C134.117 115.781 134.115 115.781 134.113 115.781C134.111 115.781 134.109 115.781 134.106 115.781C134.104 115.781 134.102 115.781 134.1 115.781C134.098 115.781 134.096 115.781 134.094 115.781C134.091 115.781 134.089 115.781 134.087 115.781C134.085 115.781 134.083 115.781 134.081 115.781C134.079 115.781 134.077 115.781 134.074 115.781C134.072 115.781 134.07 115.781 134.068 115.781C134.066 115.781 134.064 115.781 134.062 115.781C134.06 115.781 134.057 115.781 134.055 115.781C134.053 115.781 134.051 115.781 134.049 115.781C134.047 115.781 134.045 115.781 134.043 115.781C134.041 115.781 134.039 115.781 134.036 115.781C134.034 115.781 134.032 115.781 134.03 115.781C134.028 115.781 134.026 115.781 134.024 115.781C134.022 115.781 134.02 115.781 134.018 115.781C134.016 115.781 134.014 115.781 134.012 115.781C134.009 115.781 134.007 115.781 134.005 115.781C134.003 115.781 134.001 115.781 133.999 115.781C133.997 115.781 133.995 115.781 133.993 115.781C133.991 115.781 133.989 115.781 133.987 115.781C133.985 115.781 133.983 115.781 133.981 115.781C133.979 115.781 133.977 115.781 133.975 115.781C133.972 115.781 133.97 115.781 133.968 115.781C133.966 115.781 133.964 115.781 133.962 115.781C133.96 115.781 133.958 115.781 133.956 115.781C133.954 115.781 133.952 115.781 133.95 115.781C133.948 115.781 133.946 115.781 133.944 115.781C133.942 115.781 133.94 115.781 133.938 115.781C133.936 115.781 133.934 115.781 133.932 115.781C133.93 115.781 133.928 115.781 133.926 115.781C133.924 115.781 133.922 115.781 133.92 115.781C133.918 115.781 133.916 115.781 133.914 115.781C133.912 115.781 133.91 115.781 133.908 115.781C133.906 115.781 133.904 115.781 133.902 115.781C133.9 115.781 133.898 115.781 133.896 115.781C133.894 115.781 133.892 115.781 133.89 115.781C133.889 115.781 133.887 115.781 133.885 115.781C133.883 115.781 133.881 115.781 133.879 115.781C133.877 115.781 133.875 115.781 133.873 115.781C133.871 115.781 133.869 115.781 133.867 115.781C133.865 115.781 133.863 115.781 133.861 115.781C133.859 115.781 133.857 115.781 133.855 115.781C133.853 115.781 133.852 115.781 133.85 115.781C133.848 115.781 133.846 115.781 133.844 115.781C133.842 115.781 133.84 115.781 133.838 115.781C133.836 115.781 133.834 115.781 133.832 115.781C133.83 115.781 133.829 115.781 133.827 115.781C133.825 115.781 133.823 115.781 133.821 115.781C133.819 115.781 133.817 115.781 133.815 115.781C133.813 115.781 133.811 115.781 133.81 115.781C133.808 115.781 133.806 115.781 133.804 115.781C133.802 115.781 133.8 115.781 133.798 115.781C133.796 115.781 133.794 115.781 133.793 115.781C133.791 115.781 133.789 115.781 133.787 115.781C133.785 115.781 133.783 115.781 133.781 115.781C133.78 115.781 133.778 115.781 133.776 115.781C133.774 115.781 133.772 115.781 133.77 115.781C133.768 115.781 133.767 115.781 133.765 115.781C133.763 115.781 133.761 115.781 133.759 115.781C133.757 115.781 133.755 115.781 133.754 115.781C133.752 115.781 133.75 115.781 133.748 115.781C133.746 115.781 133.745 115.781 133.743 115.781C133.741 115.781 133.739 115.781 133.737 115.781C133.735 115.781 133.734 115.781 133.732 115.781C133.73 115.781 133.728 115.781 133.726 115.781C133.725 115.781 133.723 115.781 133.721 115.781C133.719 115.781 133.717 115.781 133.715 115.781C133.714 115.781 133.712 115.781 133.71 115.781C133.708 115.781 133.707 115.781 133.705 115.781C133.703 115.781 133.701 115.781 133.699 115.781C133.698 115.781 133.696 115.781 133.694 115.781C133.692 115.781 133.69 115.781 133.689 115.781C133.687 115.781 133.685 115.781 133.683 115.781C133.682 115.781 133.68 115.781 133.678 115.781C133.676 115.781 133.675 115.781 133.673 115.781C133.671 115.781 133.669 115.781 133.668 115.781C133.666 115.781 133.664 115.781 133.662 115.781C133.661 115.781 133.659 115.781 133.657 115.781C133.655 115.781 133.654 115.781 133.652 115.781C133.65 115.781 133.648 115.781 133.647 115.781C133.645 115.781 133.643 115.781 133.642 115.781C133.64 115.781 133.638 115.781 133.636 115.781C133.635 115.781 133.633 115.781 133.631 115.781C133.629 115.781 133.628 115.781 133.626 115.781C133.624 115.781 133.623 115.781 133.621 115.781C133.619 115.781 133.618 115.781 133.616 115.781C133.614 115.781 133.612 115.781 133.611 115.781C133.609 115.781 133.607 115.781 133.606 115.781C133.604 115.781 133.602 115.781 133.601 115.781C133.599 115.781 133.597 115.781 133.596 115.781C133.594 115.781 133.592 115.781 133.591 115.781C133.589 115.781 133.587 115.781 133.586 115.781C133.584 115.781 133.582 115.781 133.581 115.781C133.579 115.781 133.577 115.781 133.576 115.781C133.574 115.781 133.572 115.781 133.571 115.781C133.569 115.781 133.567 115.781 133.566 115.781C133.564 115.781 133.562 115.781 133.561 115.781C133.559 115.781 133.558 115.781 133.556 115.781C133.554 115.781 133.553 115.781 133.551 115.781C133.549 115.781 133.548 115.781 133.546 115.781C133.544 115.781 133.543 115.781 133.541 115.781C133.54 115.781 133.538 115.781 133.536 115.781C133.535 115.781 133.533 115.781 133.532 115.781C133.53 115.781 133.528 115.781 133.527 115.781C133.525 115.781 133.524 115.781 133.522 115.781C133.52 115.781 133.519 115.781 133.517 115.781C133.516 115.781 133.514 115.781 133.512 115.781C133.511 115.781 133.509 115.781 133.508 115.781C133.506 115.781 133.505 115.781 133.503 115.781C133.501 115.781 133.5 115.781 133.498 115.781C133.497 115.781 133.495 115.781 133.494 115.781C133.492 115.781 133.49 115.781 133.489 115.781C133.487 115.781 133.486 115.781 133.484 115.781C133.483 115.781 133.481 115.781 133.48 115.781C133.478 115.781 133.476 115.781 133.475 115.781C133.473 115.781 133.472 115.781 133.47 115.781C133.469 115.781 133.467 115.781 133.466 115.781C133.464 115.781 133.463 115.781 133.461 115.781C133.46 115.781 133.458 115.781 133.456 115.781C133.455 115.781 133.453 115.781 133.452 115.781C133.45 115.781 133.449 115.781 133.447 115.781C133.446 115.781 133.444 115.781 133.443 115.781C133.441 115.781 133.44 115.781 133.438 115.781C133.437 115.781 133.435 115.781 133.434 115.781C133.432 115.781 133.431 115.781 133.429 115.781C133.428 115.781 133.426 115.781 133.425 115.781C133.423 115.781 133.422 115.781 133.42 115.781C133.419 115.781 133.418 115.781 133.416 115.781C133.415 115.781 133.413 115.781 133.412 115.781C133.41 115.781 133.409 115.781 133.407 115.781C133.406 115.781 133.404 115.781 133.403 115.781C133.401 115.781 133.4 115.781 133.398 115.781C133.397 115.781 133.396 115.781 133.394 115.781C133.393 115.781 133.391 115.781 133.39 115.781C133.388 115.781 133.387 115.781 133.385 115.781C133.384 115.781 133.383 115.781 133.381 115.781C133.38 115.781 133.378 115.781 133.377 115.781C133.375 115.781 133.374 115.781 133.373 115.781C133.371 115.781 133.37 115.781 133.368 115.781C133.367 115.781 133.366 115.781 133.364 115.781C133.363 115.781 133.361 115.781 133.36 115.781C133.359 115.781 133.357 115.781 133.356 115.781C133.354 115.781 133.353 115.781 133.352 115.781C133.35 115.781 133.349 115.781 133.347 115.781C133.346 115.781 133.345 115.781 133.343 115.781C133.342 115.781 133.34 115.781 133.339 115.781C133.338 115.781 133.336 115.781 133.335 115.781C133.334 115.781 133.332 115.781 133.331 115.781C133.329 115.781 133.328 115.781 133.327 115.781C133.325 115.781 133.324 115.781 133.323 115.781C133.321 115.781 133.32 115.781 133.319 115.781C133.317 115.781 133.316 115.781 133.315 115.781C133.313 115.781 133.312 115.781 133.31 115.781C133.309 115.781 133.308 115.781 133.306 115.781C133.305 115.781 133.304 115.781 133.302 115.781C133.301 115.781 133.3 115.781 133.298 115.781C133.297 115.781 133.296 115.781 133.295 115.781C133.293 115.781 133.292 115.781 133.291 115.781C133.289 115.781 133.288 115.781 133.287 115.781C133.285 115.781 133.284 115.781 133.283 115.781C133.281 115.781 133.28 115.781 133.279 115.781C133.278 115.781 133.276 115.781 133.275 115.781C133.274 115.781 133.272 115.781 133.271 115.781C133.27 115.781 133.268 115.781 133.267 115.781C133.266 115.781 133.265 115.781 133.263 115.781C133.262 115.781 133.261 115.781 133.26 115.781C133.258 115.781 133.257 115.781 133.256 115.781C133.254 115.781 133.253 115.781 133.252 115.781C133.251 115.781 133.249 115.781 133.248 115.781C133.247 115.781 133.246 115.781 133.244 115.781C133.243 115.781 133.242 115.781 133.241 115.781C133.239 115.781 133.238 115.781 133.237 115.781C133.236 115.781 133.234 115.781 133.233 115.781C133.232 115.781 133.231 115.781 133.23 115.781C133.228 115.781 133.227 115.781 133.226 115.781C133.225 115.781 133.223 115.781 133.222 115.781C133.221 115.781 133.22 115.781 133.219 115.781C133.217 115.781 133.216 115.781 133.215 115.781C133.214 115.781 133.213 115.781 133.211 115.781C133.21 115.781 133.209 115.781 133.208 115.781C133.207 115.781 133.205 115.781 133.204 115.781C133.203 115.781 133.202 115.781 133.201 115.781C133.199 115.781 133.198 115.781 133.197 115.781C133.196 115.781 133.195 115.781 133.193 115.781C133.192 115.781 133.191 115.781 133.19 115.781C133.189 115.781 133.188 115.781 133.186 115.781C133.185 115.781 133.184 115.781 133.183 115.781C133.182 115.781 133.181 115.781 133.18 115.781C133.178 115.781 133.177 115.781 133.176 115.781C133.175 115.781 133.174 115.781 133.173 115.781C133.171 115.781 133.17 115.781 133.169 115.781C133.168 115.781 133.167 115.781 133.166 115.781C133.165 115.781 133.164 115.781 133.162 115.781C133.161 115.781 133.16 115.781 133.159 115.781C133.158 115.781 133.157 115.781 133.156 115.781C133.155 115.781 133.153 115.781 133.152 115.781C133.151 115.781 133.15 115.781 133.149 115.781C133.148 115.781 133.147 115.781 133.146 115.781C133.145 115.781 133.143 115.781 133.142 115.781C133.141 115.781 133.14 115.781 133.139 115.781C133.138 115.781 133.137 115.781 133.136 115.781C133.135 115.781 133.134 115.781 133.133 115.781C133.132 115.781 133.13 115.781 133.129 115.781C133.128 115.781 133.127 115.781 133.126 115.781C133.125 115.781 133.124 115.781 133.123 115.781C133.122 115.781 133.121 115.781 133.12 115.781C133.119 115.781 133.118 115.781 133.117 115.781C133.116 115.781 133.114 115.781 133.113 115.781C133.112 115.781 133.111 115.781 133.11 115.781C133.109 115.781 133.108 115.781 133.107 115.781C133.106 115.781 133.105 115.781 133.104 115.781C133.103 115.781 133.102 115.781 133.101 115.781C133.1 115.781 133.099 115.781 133.098 115.781C133.097 115.781 133.096 115.781 133.095 115.781C133.094 115.781 133.093 115.781 133.092 115.781C133.091 115.781 133.09 115.781 133.089 115.781C133.088 115.781 133.087 115.781 133.086 115.781C133.085 115.781 133.084 115.781 133.083 115.781C133.082 115.781 133.081 115.781 133.08 115.781C133.079 115.781 133.078 115.781 133.077 115.781C133.076 115.781 133.075 115.781 133.074 115.781C133.073 115.781 133.072 115.781 133.071 115.781C133.07 115.781 133.069 115.781 133.068 115.781C133.067 115.781 133.066 115.781 133.065 115.781C133.064 115.781 133.063 115.781 133.062 115.781C133.061 115.781 133.06 115.781 133.059 115.781C133.059 115.781 133.058 115.781 133.057 115.781C133.056 115.781 133.055 115.781 133.054 115.781C133.053 115.781 133.052 115.781 133.051 115.781C133.05 115.781 133.049 115.781 133.048 115.781C133.047 115.781 133.046 115.781 133.045 115.781C133.044 115.781 133.044 115.781 133.043 115.781C133.042 115.781 133.041 115.781 133.04 115.781C133.039 115.781 133.038 115.781 133.037 115.781C133.036 115.781 133.035 115.781 133.034 115.781C133.033 115.781 133.033 115.781 133.032 115.781C133.031 115.781 133.03 115.781 133.029 115.781C133.028 115.781 133.027 115.781 133.026 115.781C133.025 115.781 133.025 115.781 133.024 115.781C133.023 115.781 133.022 115.781 133.021 115.781C133.02 115.781 133.019 115.781 133.018 115.781C133.018 115.781 133.017 115.781 133.016 115.781C133.015 115.781 133.014 115.781 133.013 115.781C133.012 115.781 133.011 115.781 133.011 115.781C133.01 115.781 133.009 115.781 133.008 115.781C133.007 115.781 133.006 115.781 133.006 115.781C133.005 115.781 133.004 115.781 133.003 115.781C133.002 115.781 133.001 115.781 133 115.781C133 115.781 132.999 115.781 132.998 115.781C132.997 115.781 132.996 115.781 132.996 115.781C132.995 115.781 132.994 115.781 132.993 115.781C132.992 115.781 132.991 115.781 132.991 115.781C132.99 115.781 132.989 115.781 132.988 115.781C132.987 115.781 132.987 115.781 132.986 115.781C132.985 115.781 132.984 115.781 132.983 115.781C132.983 115.781 132.982 115.781 132.981 115.781C132.98 115.781 132.979 115.781 132.979 115.781C132.978 115.781 132.977 115.781 132.976 115.781C132.975 115.781 132.975 115.781 132.974 115.781C132.973 115.781 132.972 115.781 132.972 115.781C132.971 115.781 132.97 115.781 132.969 115.781C132.969 115.781 132.968 115.781 132.967 115.781C132.966 115.781 132.965 115.781 132.965 115.781C132.964 115.781 132.963 115.781 132.962 115.781C132.962 115.781 132.961 115.781 132.96 115.781C132.959 115.781 132.959 115.781 132.958 115.781C132.957 115.781 132.957 115.781 132.956 115.781C132.955 115.781 132.954 115.781 132.954 115.781C132.953 115.781 132.952 115.781 132.951 115.781C132.951 115.781 132.95 115.781 132.949 115.781C132.949 115.781 132.948 115.781 132.947 115.781C132.946 115.781 132.946 115.781 132.945 115.781C132.944 115.781 132.944 115.781 132.943 115.781C132.942 115.781 132.941 115.781 132.941 115.781C132.94 115.781 132.939 115.781 132.939 115.781C132.938 115.781 132.937 115.781 132.937 115.781C132.936 115.781 132.935 115.781 132.935 115.781C132.934 115.781 132.933 115.781 132.933 115.781C132.932 115.781 132.931 115.781 132.931 115.781C132.93 115.781 132.929 115.781 132.929 115.781C132.928 115.781 132.927 115.781 132.927 115.781C132.926 115.781 132.925 115.781 132.925 115.781C132.924 115.781 132.923 115.781 132.923 115.781C132.922 115.781 132.921 115.781 132.921 115.781C132.92 115.781 132.919 115.781 132.919 115.781C132.918 115.781 132.918 115.781 132.917 115.781C132.916 115.781 132.916 115.781 132.915 115.781C132.914 115.781 132.914 115.781 132.913 115.781C132.913 115.781 132.912 115.781 132.911 115.781C132.911 115.781 132.91 115.781 132.909 115.781C132.909 115.781 132.908 115.781 132.908 115.781C132.907 115.781 132.906 115.781 132.906 115.781C132.905 115.781 132.905 115.781 132.904 115.781C132.903 115.781 132.903 115.781 132.902 115.781C132.902 115.781 132.901 115.781 132.9 115.781C132.9 115.781 132.899 115.781 132.899 115.781C132.898 115.781 132.898 115.781 132.897 115.781C132.896 115.781 132.896 115.781 132.895 115.781C132.895 115.781 132.894 115.781 132.894 115.781C132.893 115.781 132.892 115.781 132.892 115.781C132.891 115.781 132.891 115.781 132.89 115.781C132.89 115.781 132.889 115.781 132.889 115.781C132.888 115.781 132.887 115.781 132.887 115.781C132.886 115.781 132.886 115.781 132.885 115.781C132.885 115.781 132.884 115.781 132.884 115.781C132.883 115.781 132.883 115.781 132.882 115.781C132.882 115.781 132.881 115.781 132.881 115.781C132.88 115.781 132.88 115.781 132.879 115.781C132.879 115.781 132.878 115.781 132.877 115.781C132.877 115.781 132.876 115.781 132.876 115.781C132.875 115.781 132.875 115.781 132.874 115.781C132.874 115.781 132.873 115.781 132.873 115.781C132.872 115.781 132.872 115.781 132.872 115.781C132.871 115.781 132.871 115.781 132.87 115.781C132.87 115.781 132.869 115.781 132.869 115.781C132.868 115.781 132.868 115.781 132.867 115.781C132.867 115.781 132.866 115.781 132.866 115.781C132.865 115.781 132.865 115.781 132.864 115.781C132.864 115.781 132.863 115.781 132.863 115.781C132.863 115.781 132.862 115.781 132.862 115.781C132.861 115.781 132.861 115.781 132.86 115.781C132.86 115.781 132.859 115.781 132.859 115.781C132.859 115.781 132.858 115.781 132.858 115.781C132.857 115.781 132.857 115.781 132.856 115.781C132.856 115.781 132.855 115.781 132.855 115.781C132.855 115.781 132.854 115.781 132.854 115.781C132.853 115.781 132.853 115.781 132.853 115.781C132.852 115.781 132.852 115.781 132.851 115.781C132.851 115.781 132.851 115.781 132.85 115.781C132.85 115.781 132.849 115.781 132.849 115.781C132.849 115.781 132.848 115.781 132.848 115.781C132.847 115.781 132.847 115.781 132.847 115.781C132.846 115.781 132.846 115.781 132.845 115.781C132.845 115.781 132.845 115.781 132.844 115.781C132.844 115.781 132.844 115.781 132.843 115.781C132.843 115.781 132.842 115.781 132.842 115.781C132.842 115.781 132.841 115.781 132.841 115.781C132.841 115.781 132.84 115.781 132.84 115.781C132.84 115.781 132.839 115.781 132.839 115.781C132.838 115.781 132.838 115.781 132.838 115.781C132.837 115.781 132.837 115.781 132.837 115.781C132.836 115.781 132.836 115.781 132.836 115.781C132.835 115.781 132.835 115.781 132.835 115.781C132.834 115.781 132.834 115.781 132.834 115.781C132.833 115.781 132.833 115.781 132.833 115.781C132.832 115.781 132.832 115.781 132.832 115.781C132.832 115.781 132.831 115.781 132.831 115.781C132.831 115.781 132.83 115.781 132.83 115.781C132.83 115.781 132.829 115.781 132.829 115.781C132.829 115.781 132.829 115.781 132.828 115.781C132.828 115.781 132.828 115.781 132.827 115.781C132.827 115.781 132.827 115.781 132.827 115.781C132.826 115.781 132.826 115.781 132.826 115.781C132.825 115.781 132.825 115.781 132.825 115.781C132.825 115.781 132.824 115.781 132.824 115.781C132.824 115.781 132.824 115.781 132.823 115.781C132.823 115.781 132.823 115.781 132.823 115.781C132.822 115.781 132.822 115.781 132.822 115.781C132.822 115.781 132.821 115.781 132.821 115.781C132.821 115.781 132.821 115.781 132.82 115.781C132.82 115.781 132.82 115.781 132.82 115.781C132.819 115.781 132.819 115.781 132.819 115.781C132.819 115.781 132.818 115.781 132.818 115.781C132.818 115.781 132.818 115.781 132.818 115.781C132.817 115.781 132.817 115.781 132.817 115.781C132.817 115.781 132.816 115.781 132.816 115.781C132.816 115.781 132.816 115.781 132.816 115.781C132.815 115.781 132.815 115.781 132.815 115.781C132.815 115.781 132.815 115.781 132.815 115.781C132.814 115.781 132.814 115.781 132.814 115.781C132.814 115.781 132.814 115.781 132.813 115.781C132.813 115.781 132.813 115.781 132.813 115.781V118.752C132.813 118.752 132.813 118.752 132.813 118.752C132.814 118.752 132.814 118.752 132.814 118.752C132.814 118.752 132.814 118.752 132.815 118.752C132.815 118.752 132.815 118.752 132.815 118.752C132.815 118.752 132.815 118.752 132.816 118.752C132.816 118.752 132.816 118.752 132.816 118.752C132.816 118.752 132.817 118.752 132.817 118.752C132.817 118.752 132.817 118.752 132.818 118.752C132.818 118.752 132.818 118.752 132.818 118.752C132.818 118.752 132.819 118.752 132.819 118.752C132.819 118.752 132.819 118.752 132.82 118.752C132.82 118.752 132.82 118.752 132.82 118.752C132.821 118.752 132.821 118.752 132.821 118.752C132.821 118.752 132.822 118.752 132.822 118.752C132.822 118.752 132.822 118.752 132.823 118.752C132.823 118.752 132.823 118.752 132.823 118.752C132.824 118.752 132.824 118.752 132.824 118.752C132.824 118.752 132.825 118.752 132.825 118.752C132.825 118.752 132.825 118.752 132.826 118.752C132.826 118.752 132.826 118.752 132.827 118.752C132.827 118.752 132.827 118.752 132.827 118.752C132.828 118.752 132.828 118.752 132.828 118.752C132.829 118.752 132.829 118.752 132.829 118.752C132.829 118.752 132.83 118.752 132.83 118.752C132.83 118.752 132.831 118.752 132.831 118.752C132.831 118.752 132.832 118.752 132.832 118.752C132.832 118.752 132.832 118.752 132.833 118.752C132.833 118.752 132.833 118.752 132.834 118.752C132.834 118.752 132.834 118.752 132.835 118.752C132.835 118.752 132.835 118.752 132.836 118.752C132.836 118.752 132.836 118.752 132.837 118.752C132.837 118.752 132.837 118.752 132.838 118.752C132.838 118.752 132.838 118.752 132.839 118.752C132.839 118.752 132.84 118.752 132.84 118.752C132.84 118.752 132.841 118.752 132.841 118.752C132.841 118.752 132.842 118.752 132.842 118.752C132.842 118.752 132.843 118.752 132.843 118.752C132.844 118.752 132.844 118.752 132.844 118.752C132.845 118.752 132.845 118.752 132.845 118.752C132.846 118.752 132.846 118.752 132.847 118.752C132.847 118.752 132.847 118.752 132.848 118.752C132.848 118.752 132.849 118.752 132.849 118.752C132.849 118.752 132.85 118.752 132.85 118.752C132.851 118.752 132.851 118.752 132.851 118.752C132.852 118.752 132.852 118.752 132.853 118.752C132.853 118.752 132.853 118.752 132.854 118.752C132.854 118.752 132.855 118.752 132.855 118.752C132.855 118.752 132.856 118.752 132.856 118.752C132.857 118.752 132.857 118.752 132.858 118.752C132.858 118.752 132.859 118.752 132.859 118.752C132.859 118.752 132.86 118.752 132.86 118.752C132.861 118.752 132.861 118.752 132.862 118.752C132.862 118.752 132.863 118.752 132.863 118.752C132.863 118.752 132.864 118.752 132.864 118.752C132.865 118.752 132.865 118.752 132.866 118.752C132.866 118.752 132.867 118.752 132.867 118.752C132.868 118.752 132.868 118.752 132.869 118.752C132.869 118.752 132.87 118.752 132.87 118.752C132.871 118.752 132.871 118.752 132.872 118.752C132.872 118.752 132.872 118.752 132.873 118.752C132.873 118.752 132.874 118.752 132.874 118.752C132.875 118.752 132.875 118.752 132.876 118.752C132.876 118.752 132.877 118.752 132.877 118.752C132.878 118.752 132.879 118.752 132.879 118.752C132.88 118.752 132.88 118.752 132.881 118.752C132.881 118.752 132.882 118.752 132.882 118.752C132.883 118.752 132.883 118.752 132.884 118.752C132.884 118.752 132.885 118.752 132.885 118.752C132.886 118.752 132.886 118.752 132.887 118.752C132.887 118.752 132.888 118.752 132.889 118.752C132.889 118.752 132.89 118.752 132.89 118.752C132.891 118.752 132.891 118.752 132.892 118.752C132.892 118.752 132.893 118.752 132.894 118.752C132.894 118.752 132.895 118.752 132.895 118.752C132.896 118.752 132.896 118.752 132.897 118.752C132.898 118.752 132.898 118.752 132.899 118.752C132.899 118.752 132.9 118.752 132.9 118.752C132.901 118.752 132.902 118.752 132.902 118.752C132.903 118.752 132.903 118.752 132.904 118.752C132.905 118.752 132.905 118.752 132.906 118.752C132.906 118.752 132.907 118.752 132.908 118.752C132.908 118.752 132.909 118.752 132.909 118.752C132.91 118.752 132.911 118.752 132.911 118.752C132.912 118.752 132.913 118.752 132.913 118.752C132.914 118.752 132.914 118.752 132.915 118.752C132.916 118.752 132.916 118.752 132.917 118.752C132.918 118.752 132.918 118.752 132.919 118.752C132.919 118.752 132.92 118.752 132.921 118.752C132.921 118.752 132.922 118.752 132.923 118.752C132.923 118.752 132.924 118.752 132.925 118.752C132.925 118.752 132.926 118.752 132.927 118.752C132.927 118.752 132.928 118.752 132.929 118.752C132.929 118.752 132.93 118.752 132.931 118.752C132.931 118.752 132.932 118.752 132.933 118.752C132.933 118.752 132.934 118.752 132.935 118.752C132.935 118.752 132.936 118.752 132.937 118.752C132.937 118.752 132.938 118.752 132.939 118.752C132.939 118.752 132.94 118.752 132.941 118.752C132.941 118.752 132.942 118.752 132.943 118.752C132.944 118.752 132.944 118.752 132.945 118.752C132.946 118.752 132.946 118.752 132.947 118.752C132.948 118.752 132.949 118.752 132.949 118.752C132.95 118.752 132.951 118.752 132.951 118.752C132.952 118.752 132.953 118.752 132.954 118.752C132.954 118.752 132.955 118.752 132.956 118.752C132.957 118.752 132.957 118.752 132.958 118.752C132.959 118.752 132.959 118.752 132.96 118.752C132.961 118.752 132.962 118.752 132.962 118.752C132.963 118.752 132.964 118.752 132.965 118.752C132.965 118.752 132.966 118.752 132.967 118.752C132.968 118.752 132.969 118.752 132.969 118.752C132.97 118.752 132.971 118.752 132.972 118.752C132.972 118.752 132.973 118.752 132.974 118.752C132.975 118.752 132.975 118.752 132.976 118.752C132.977 118.752 132.978 118.752 132.979 118.752C132.979 118.752 132.98 118.752 132.981 118.752C132.982 118.752 132.983 118.752 132.983 118.752C132.984 118.752 132.985 118.752 132.986 118.752C132.987 118.752 132.987 118.752 132.988 118.752C132.989 118.752 132.99 118.752 132.991 118.752C132.991 118.752 132.992 118.752 132.993 118.752C132.994 118.752 132.995 118.752 132.996 118.752C132.996 118.752 132.997 118.752 132.998 118.752C132.999 118.752 133 118.752 133 118.752C133.001 118.752 133.002 118.752 133.003 118.752C133.004 118.752 133.005 118.752 133.006 118.752C133.006 118.752 133.007 118.752 133.008 118.752C133.009 118.752 133.01 118.752 133.011 118.752C133.011 118.752 133.012 118.752 133.013 118.752C133.014 118.752 133.015 118.752 133.016 118.752C133.017 118.752 133.018 118.752 133.018 118.752C133.019 118.752 133.02 118.752 133.021 118.752C133.022 118.752 133.023 118.752 133.024 118.752C133.025 118.752 133.025 118.752 133.026 118.752C133.027 118.752 133.028 118.752 133.029 118.752C133.03 118.752 133.031 118.752 133.032 118.752C133.033 118.752 133.033 118.752 133.034 118.752C133.035 118.752 133.036 118.752 133.037 118.752C133.038 118.752 133.039 118.752 133.04 118.752C133.041 118.752 133.042 118.752 133.043 118.752C133.044 118.752 133.044 118.752 133.045 118.752C133.046 118.752 133.047 118.752 133.048 118.752C133.049 118.752 133.05 118.752 133.051 118.752C133.052 118.752 133.053 118.752 133.054 118.752C133.055 118.752 133.056 118.752 133.057 118.752C133.058 118.752 133.059 118.752 133.059 118.752C133.06 118.752 133.061 118.752 133.062 118.752C133.063 118.752 133.064 118.752 133.065 118.752C133.066 118.752 133.067 118.752 133.068 118.752C133.069 118.752 133.07 118.752 133.071 118.752C133.072 118.752 133.073 118.752 133.074 118.752C133.075 118.752 133.076 118.752 133.077 118.752C133.078 118.752 133.079 118.752 133.08 118.752C133.081 118.752 133.082 118.752 133.083 118.752C133.084 118.752 133.085 118.752 133.086 118.752C133.087 118.752 133.088 118.752 133.089 118.752C133.09 118.752 133.091 118.752 133.092 118.752C133.093 118.752 133.094 118.752 133.095 118.752C133.096 118.752 133.097 118.752 133.098 118.752C133.099 118.752 133.1 118.752 133.101 118.752C133.102 118.752 133.103 118.752 133.104 118.752C133.105 118.752 133.106 118.752 133.107 118.752C133.108 118.752 133.109 118.752 133.11 118.752C133.111 118.752 133.112 118.752 133.113 118.752C133.114 118.752 133.116 118.752 133.117 118.752C133.118 118.752 133.119 118.752 133.12 118.752C133.121 118.752 133.122 118.752 133.123 118.752C133.124 118.752 133.125 118.752 133.126 118.752C133.127 118.752 133.128 118.752 133.129 118.752C133.13 118.752 133.132 118.752 133.133 118.752C133.134 118.752 133.135 118.752 133.136 118.752C133.137 118.752 133.138 118.752 133.139 118.752C133.14 118.752 133.141 118.752 133.142 118.752C133.143 118.752 133.145 118.752 133.146 118.752C133.147 118.752 133.148 118.752 133.149 118.752C133.15 118.752 133.151 118.752 133.152 118.752C133.153 118.752 133.155 118.752 133.156 118.752C133.157 118.752 133.158 118.752 133.159 118.752C133.16 118.752 133.161 118.752 133.162 118.752C133.164 118.752 133.165 118.752 133.166 118.752C133.167 118.752 133.168 118.752 133.169 118.752C133.17 118.752 133.171 118.752 133.173 118.752C133.174 118.752 133.175 118.752 133.176 118.752C133.177 118.752 133.178 118.752 133.18 118.752C133.181 118.752 133.182 118.752 133.183 118.752C133.184 118.752 133.185 118.752 133.186 118.752C133.188 118.752 133.189 118.752 133.19 118.752C133.191 118.752 133.192 118.752 133.193 118.752C133.195 118.752 133.196 118.752 133.197 118.752C133.198 118.752 133.199 118.752 133.201 118.752C133.202 118.752 133.203 118.752 133.204 118.752C133.205 118.752 133.207 118.752 133.208 118.752C133.209 118.752 133.21 118.752 133.211 118.752C133.213 118.752 133.214 118.752 133.215 118.752C133.216 118.752 133.217 118.752 133.219 118.752C133.22 118.752 133.221 118.752 133.222 118.752C133.223 118.752 133.225 118.752 133.226 118.752C133.227 118.752 133.228 118.752 133.23 118.752C133.231 118.752 133.232 118.752 133.233 118.752C133.234 118.752 133.236 118.752 133.237 118.752C133.238 118.752 133.239 118.752 133.241 118.752C133.242 118.752 133.243 118.752 133.244 118.752C133.246 118.752 133.247 118.752 133.248 118.752C133.249 118.752 133.251 118.752 133.252 118.752C133.253 118.752 133.254 118.752 133.256 118.752C133.257 118.752 133.258 118.752 133.26 118.752C133.261 118.752 133.262 118.752 133.263 118.752C133.265 118.752 133.266 118.752 133.267 118.752C133.268 118.752 133.27 118.752 133.271 118.752C133.272 118.752 133.274 118.752 133.275 118.752C133.276 118.752 133.278 118.752 133.279 118.752C133.28 118.752 133.281 118.752 133.283 118.752C133.284 118.752 133.285 118.752 133.287 118.752C133.288 118.752 133.289 118.752 133.291 118.752C133.292 118.752 133.293 118.752 133.295 118.752C133.296 118.752 133.297 118.752 133.298 118.752C133.3 118.752 133.301 118.752 133.302 118.752C133.304 118.752 133.305 118.752 133.306 118.752C133.308 118.752 133.309 118.752 133.31 118.752C133.312 118.752 133.313 118.752 133.315 118.752C133.316 118.752 133.317 118.752 133.319 118.752C133.32 118.752 133.321 118.752 133.323 118.752C133.324 118.752 133.325 118.752 133.327 118.752C133.328 118.752 133.329 118.752 133.331 118.752C133.332 118.752 133.334 118.752 133.335 118.752C133.336 118.752 133.338 118.752 133.339 118.752C133.34 118.752 133.342 118.752 133.343 118.752C133.345 118.752 133.346 118.752 133.347 118.752C133.349 118.752 133.35 118.752 133.352 118.752C133.353 118.752 133.354 118.752 133.356 118.752C133.357 118.752 133.359 118.752 133.36 118.752C133.361 118.752 133.363 118.752 133.364 118.752C133.366 118.752 133.367 118.752 133.368 118.752C133.37 118.752 133.371 118.752 133.373 118.752C133.374 118.752 133.375 118.752 133.377 118.752C133.378 118.752 133.38 118.752 133.381 118.752C133.383 118.752 133.384 118.752 133.385 118.752C133.387 118.752 133.388 118.752 133.39 118.752C133.391 118.752 133.393 118.752 133.394 118.752C133.396 118.752 133.397 118.752 133.398 118.752C133.4 118.752 133.401 118.752 133.403 118.752C133.404 118.752 133.406 118.752 133.407 118.752C133.409 118.752 133.41 118.752 133.412 118.752C133.413 118.752 133.415 118.752 133.416 118.752C133.418 118.752 133.419 118.752 133.42 118.752C133.422 118.752 133.423 118.752 133.425 118.752C133.426 118.752 133.428 118.752 133.429 118.752C133.431 118.752 133.432 118.752 133.434 118.752C133.435 118.752 133.437 118.752 133.438 118.752C133.44 118.752 133.441 118.752 133.443 118.752C133.444 118.752 133.446 118.752 133.447 118.752C133.449 118.752 133.45 118.752 133.452 118.752C133.453 118.752 133.455 118.752 133.456 118.752C133.458 118.752 133.46 118.752 133.461 118.752C133.463 118.752 133.464 118.752 133.466 118.752C133.467 118.752 133.469 118.752 133.47 118.752C133.472 118.752 133.473 118.752 133.475 118.752C133.476 118.752 133.478 118.752 133.48 118.752C133.481 118.752 133.483 118.752 133.484 118.752C133.486 118.752 133.487 118.752 133.489 118.752C133.49 118.752 133.492 118.752 133.494 118.752C133.495 118.752 133.497 118.752 133.498 118.752C133.5 118.752 133.501 118.752 133.503 118.752C133.505 118.752 133.506 118.752 133.508 118.752C133.509 118.752 133.511 118.752 133.512 118.752C133.514 118.752 133.516 118.752 133.517 118.752C133.519 118.752 133.52 118.752 133.522 118.752C133.524 118.752 133.525 118.752 133.527 118.752C133.528 118.752 133.53 118.752 133.532 118.752C133.533 118.752 133.535 118.752 133.536 118.752C133.538 118.752 133.54 118.752 133.541 118.752C133.543 118.752 133.544 118.752 133.546 118.752C133.548 118.752 133.549 118.752 133.551 118.752C133.553 118.752 133.554 118.752 133.556 118.752C133.558 118.752 133.559 118.752 133.561 118.752C133.562 118.752 133.564 118.752 133.566 118.752C133.567 118.752 133.569 118.752 133.571 118.752C133.572 118.752 133.574 118.752 133.576 118.752C133.577 118.752 133.579 118.752 133.581 118.752C133.582 118.752 133.584 118.752 133.586 118.752C133.587 118.752 133.589 118.752 133.591 118.752C133.592 118.752 133.594 118.752 133.596 118.752C133.597 118.752 133.599 118.752 133.601 118.752C133.602 118.752 133.604 118.752 133.606 118.752C133.607 118.752 133.609 118.752 133.611 118.752C133.612 118.752 133.614 118.752 133.616 118.752C133.618 118.752 133.619 118.752 133.621 118.752C133.623 118.752 133.624 118.752 133.626 118.752C133.628 118.752 133.629 118.752 133.631 118.752C133.633 118.752 133.635 118.752 133.636 118.752C133.638 118.752 133.64 118.752 133.642 118.752C133.643 118.752 133.645 118.752 133.647 118.752C133.648 118.752 133.65 118.752 133.652 118.752C133.654 118.752 133.655 118.752 133.657 118.752C133.659 118.752 133.661 118.752 133.662 118.752C133.664 118.752 133.666 118.752 133.668 118.752C133.669 118.752 133.671 118.752 133.673 118.752C133.675 118.752 133.676 118.752 133.678 118.752C133.68 118.752 133.682 118.752 133.683 118.752C133.685 118.752 133.687 118.752 133.689 118.752C133.69 118.752 133.692 118.752 133.694 118.752C133.696 118.752 133.698 118.752 133.699 118.752C133.701 118.752 133.703 118.752 133.705 118.752C133.707 118.752 133.708 118.752 133.71 118.752C133.712 118.752 133.714 118.752 133.715 118.752C133.717 118.752 133.719 118.752 133.721 118.752C133.723 118.752 133.725 118.752 133.726 118.752C133.728 118.752 133.73 118.752 133.732 118.752C133.734 118.752 133.735 118.752 133.737 118.752C133.739 118.752 133.741 118.752 133.743 118.752C133.745 118.752 133.746 118.752 133.748 118.752C133.75 118.752 133.752 118.752 133.754 118.752C133.755 118.752 133.757 118.752 133.759 118.752C133.761 118.752 133.763 118.752 133.765 118.752C133.767 118.752 133.768 118.752 133.77 118.752C133.772 118.752 133.774 118.752 133.776 118.752C133.778 118.752 133.78 118.752 133.781 118.752C133.783 118.752 133.785 118.752 133.787 118.752C133.789 118.752 133.791 118.752 133.793 118.752C133.794 118.752 133.796 118.752 133.798 118.752C133.8 118.752 133.802 118.752 133.804 118.752C133.806 118.752 133.808 118.752 133.81 118.752C133.811 118.752 133.813 118.752 133.815 118.752C133.817 118.752 133.819 118.752 133.821 118.752C133.823 118.752 133.825 118.752 133.827 118.752C133.829 118.752 133.83 118.752 133.832 118.752C133.834 118.752 133.836 118.752 133.838 118.752C133.84 118.752 133.842 118.752 133.844 118.752C133.846 118.752 133.848 118.752 133.85 118.752C133.852 118.752 133.853 118.752 133.855 118.752C133.857 118.752 133.859 118.752 133.861 118.752C133.863 118.752 133.865 118.752 133.867 118.752C133.869 118.752 133.871 118.752 133.873 118.752C133.875 118.752 133.877 118.752 133.879 118.752C133.881 118.752 133.883 118.752 133.885 118.752C133.887 118.752 133.889 118.752 133.89 118.752C133.892 118.752 133.894 118.752 133.896 118.752C133.898 118.752 133.9 118.752 133.902 118.752C133.904 118.752 133.906 118.752 133.908 118.752C133.91 118.752 133.912 118.752 133.914 118.752C133.916 118.752 133.918 118.752 133.92 118.752C133.922 118.752 133.924 118.752 133.926 118.752C133.928 118.752 133.93 118.752 133.932 118.752C133.934 118.752 133.936 118.752 133.938 118.752C133.94 118.752 133.942 118.752 133.944 118.752C133.946 118.752 133.948 118.752 133.95 118.752C133.952 118.752 133.954 118.752 133.956 118.752C133.958 118.752 133.96 118.752 133.962 118.752C133.964 118.752 133.966 118.752 133.968 118.752C133.97 118.752 133.972 118.752 133.975 118.752C133.977 118.752 133.979 118.752 133.981 118.752C133.983 118.752 133.985 118.752 133.987 118.752C133.989 118.752 133.991 118.752 133.993 118.752C133.995 118.752 133.997 118.752 133.999 118.752C134.001 118.752 134.003 118.752 134.005 118.752C134.007 118.752 134.009 118.752 134.012 118.752C134.014 118.752 134.016 118.752 134.018 118.752C134.02 118.752 134.022 118.752 134.024 118.752C134.026 118.752 134.028 118.752 134.03 118.752C134.032 118.752 134.034 118.752 134.036 118.752C134.039 118.752 134.041 118.752 134.043 118.752C134.045 118.752 134.047 118.752 134.049 118.752C134.051 118.752 134.053 118.752 134.055 118.752C134.057 118.752 134.06 118.752 134.062 118.752C134.064 118.752 134.066 118.752 134.068 118.752C134.07 118.752 134.072 118.752 134.074 118.752C134.077 118.752 134.079 118.752 134.081 118.752C134.083 118.752 134.085 118.752 134.087 118.752C134.089 118.752 134.091 118.752 134.094 118.752C134.096 118.752 134.098 118.752 134.1 118.752C134.102 118.752 134.104 118.752 134.106 118.752C134.109 118.752 134.111 118.752 134.113 118.752C134.115 118.752 134.117 118.752 134.119 118.752C134.122 118.752 134.124 118.752 134.126 118.752C134.128 118.752 134.13 118.752 134.132 118.752C134.135 118.752 134.137 118.752 134.139 118.752C134.141 118.752 134.143 118.752 134.145 118.752C134.148 118.752 134.15 118.752 134.152 118.752C134.154 118.752 134.156 118.752 134.159 118.752C134.161 118.752 134.163 118.752 134.165 118.752C134.167 118.752 134.17 118.752 134.172 118.752C134.174 118.752 134.176 118.752 134.178 118.752C134.181 118.752 134.183 118.752 134.185 118.752C134.187 118.752 134.189 118.752 134.192 118.752C134.194 118.752 134.196 118.752 134.198 118.752C134.201 118.752 134.203 118.752 134.205 118.752C134.207 118.752 134.21 118.752 134.212 118.752C134.214 118.752 134.216 118.752 134.218 118.752C134.221 118.752 134.223 118.752 134.225 118.752C134.227 118.752 134.23 118.752 134.232 118.752C134.234 118.752 134.236 118.752 134.239 118.752C134.241 118.752 134.243 118.752 134.245 118.752C134.248 118.752 134.25 118.752 134.252 118.752C134.255 118.752 134.257 118.752 134.259 118.752C134.261 118.752 134.264 118.752 134.266 118.752C134.268 118.752 134.27 118.752 134.273 118.752C134.275 118.752 134.277 118.752 134.28 118.752C134.282 118.752 134.284 118.752 134.286 118.752C134.289 118.752 134.291 118.752 134.293 118.752C134.296 118.752 134.298 118.752 134.3 118.752C134.303 118.752 134.305 118.752 134.307 118.752C134.31 118.752 134.312 118.752 134.314 118.752C134.316 118.752 134.319 118.752 134.321 118.752C134.323 118.752 134.326 118.752 134.328 118.752C134.33 118.752 134.333 118.752 134.335 118.752C134.337 118.752 134.34 118.752 134.342 118.752C134.344 118.752 134.347 118.752 134.349 118.752C134.351 118.752 134.354 118.752 134.356 118.752C134.358 118.752 134.361 118.752 134.363 118.752C134.366 118.752 134.368 118.752 134.37 118.752C134.373 118.752 134.375 118.752 134.377 118.752C134.38 118.752 134.382 118.752 134.384 118.752C134.387 118.752 134.389 118.752 134.392 118.752C134.394 118.752 134.396 118.752 134.399 118.752C134.401 118.752 134.403 118.752 134.406 118.752C134.408 118.752 134.411 118.752 134.413 118.752C134.415 118.752 134.418 118.752 134.42 118.752C134.423 118.752 134.425 118.752 134.427 118.752C134.43 118.752 134.432 118.752 134.435 118.752C134.437 118.752 134.439 118.752 134.442 118.752C134.444 118.752 134.447 118.752 134.449 118.752C134.451 118.752 134.454 118.752 134.456 118.752C134.459 118.752 134.461 118.752 134.464 118.752C134.466 118.752 134.468 118.752 134.471 118.752C134.473 118.752 134.476 118.752 134.478 118.752C134.481 118.752 134.483 118.752 134.485 118.752C134.488 118.752 134.49 118.752 134.493 118.752C134.495 118.752 134.498 118.752 134.5 118.752C134.503 118.752 134.505 118.752 134.508 118.752C134.51 118.752 134.512 118.752 134.515 118.752C134.517 118.752 134.52 118.752 134.522 118.752C134.525 118.752 134.527 118.752 134.53 118.752C134.532 118.752 134.535 118.752 134.537 118.752C134.54 118.752 134.542 118.752 134.545 118.752C134.547 118.752 134.55 118.752 134.552 118.752C134.555 118.752 134.557 118.752 134.56 118.752C134.562 118.752 134.565 118.752 134.567 118.752C134.57 118.752 134.572 118.752 134.575 118.752C134.577 118.752 134.58 118.752 134.582 118.752C134.585 118.752 134.587 118.752 134.59 118.752C134.592 118.752 134.595 118.752 134.597 118.752C134.6 118.752 134.602 118.752 134.605 118.752C134.607 118.752 134.61 118.752 134.612 118.752C134.615 118.752 134.617 118.752 134.62 118.752C134.623 118.752 134.625 118.752 134.628 118.752C134.63 118.752 134.633 118.752 134.635 118.752C134.638 118.752 134.64 118.752 134.643 118.752C134.645 118.752 134.648 118.752 134.651 118.752C134.653 118.752 134.656 118.752 134.658 118.752C134.661 118.752 134.663 118.752 134.666 118.752C134.669 118.752 134.671 118.752 134.674 118.752C134.676 118.752 134.679 118.752 134.681 118.752C134.684 118.752 134.687 118.752 134.689 118.752C134.692 118.752 134.694 118.752 134.697 118.752C134.7 118.752 134.702 118.752 134.705 118.752C134.707 118.752 134.71 118.752 134.713 118.752C134.715 118.752 134.718 118.752 134.72 118.752C134.723 118.752 134.726 118.752 134.728 118.752C134.731 118.752 134.733 118.752 134.736 118.752C134.739 118.752 134.741 118.752 134.744 118.752C134.747 118.752 134.749 118.752 134.752 118.752C134.754 118.752 134.757 118.752 134.76 118.752C134.762 118.752 134.765 118.752 134.768 118.752C134.77 118.752 134.773 118.752 134.776 118.752C134.778 118.752 134.781 118.752 134.784 118.752C134.786 118.752 134.789 118.752 134.791 118.752C134.794 118.752 134.797 118.752 134.799 118.752C134.802 118.752 134.805 118.752 134.807 118.752C134.81 118.752 134.813 118.752 134.815 118.752C134.818 118.752 134.821 118.752 134.823 118.752C134.826 118.752 134.829 118.752 134.832 118.752C134.834 118.752 134.837 118.752 134.84 118.752C134.842 118.752 134.845 118.752 134.848 118.752C134.85 118.752 134.853 118.752 134.856 118.752C134.858 118.752 134.861 118.752 134.864 118.752C134.867 118.752 134.869 118.752 134.872 118.752C134.875 118.752 134.877 118.752 134.88 118.752C134.883 118.752 134.886 118.752 134.888 118.752C134.891 118.752 134.894 118.752 134.896 118.752C134.899 118.752 134.902 118.752 134.905 118.752C134.907 118.752 134.91 118.752 134.913 118.752C134.916 118.752 134.918 118.752 134.921 118.752C134.924 118.752 134.927 118.752 134.929 118.752C134.932 118.752 134.935 118.752 134.938 118.752C134.94 118.752 134.943 118.752 134.946 118.752C134.949 118.752 134.951 118.752 134.954 118.752C134.957 118.752 134.96 118.752 134.962 118.752C134.965 118.752 134.968 118.752 134.971 118.752C134.973 118.752 134.976 118.752 134.979 118.752C134.982 118.752 134.985 118.752 134.987 118.752C134.99 118.752 134.993 118.752 134.996 118.752C134.998 118.752 135.001 118.752 135.004 118.752C135.007 118.752 135.01 118.752 135.012 118.752C135.015 118.752 135.018 118.752 135.021 118.752C135.024 118.752 135.026 118.752 135.029 118.752C135.032 118.752 135.035 118.752 135.038 118.752C135.041 118.752 135.043 118.752 135.046 118.752C135.049 118.752 135.052 118.752 135.055 118.752C135.058 118.752 135.06 118.752 135.063 118.752C135.066 118.752 135.069 118.752 135.072 118.752C135.075 118.752 135.077 118.752 135.08 118.752C135.083 118.752 135.086 118.752 135.089 118.752C135.092 118.752 135.094 118.752 135.097 118.752C135.1 118.752 135.103 118.752 135.106 118.752C135.109 118.752 135.112 118.752 135.114 118.752C135.117 118.752 135.12 118.752 135.123 118.752C135.126 118.752 135.129 118.752 135.132 118.752C135.135 118.752 135.137 118.752 135.14 118.752C135.143 118.752 135.146 118.752 135.149 118.752C135.152 118.752 135.155 118.752 135.158 118.752C135.16 118.752 135.163 118.752 135.166 118.752C135.169 118.752 135.172 118.752 135.175 118.752V115.781ZM132.877 115.782C132.629 115.771 132.5 115.738 132.452 115.721C132.409 115.706 132.495 115.727 132.591 115.848L130.271 117.704C130.926 118.523 131.955 118.716 132.748 118.75L132.877 115.782ZM132.591 115.848C132.645 115.915 132.632 115.935 132.608 115.835C132.584 115.737 132.56 115.568 132.56 115.305H129.589C129.589 116.088 129.711 117.004 130.271 117.704L132.591 115.848ZM132.56 115.305C132.56 114.969 132.575 114.14 132.605 112.798L129.634 112.732C129.604 114.063 129.589 114.929 129.589 115.305H132.56ZM132.605 112.798C132.634 111.455 132.649 110.359 132.649 109.511H129.678C129.678 110.328 129.664 111.4 129.634 112.732L132.605 112.798ZM161.687 107.862L161.758 109.346L163.884 109.245L163.056 107.284L161.687 107.862ZM158.077 98.3694L159.471 97.855L158.035 93.963L156.674 97.8821L158.077 98.3694ZM154.556 107.818L153.19 107.235L152.339 109.23L154.507 109.303L154.556 107.818ZM153.621 110.18L153.66 108.695L152.641 108.668L152.249 109.608L153.621 110.18ZM152.64 112.542L151.268 111.973L151.262 111.987L151.256 112.002L152.64 112.542ZM151.481 115.617L152.874 116.133L152.877 116.125L152.88 116.117L151.481 115.617ZM150.724 117.979L150.524 119.451L151.819 119.627L152.158 118.365L150.724 117.979ZM148.495 115.127L147.133 114.535L147.122 114.56L147.112 114.586L148.495 115.127ZM149.966 111.74L148.608 111.136L148.603 111.148L149.966 111.74ZM151.972 106.926L153.356 107.465L153.357 107.464L151.972 106.926ZM156.517 94.3582L156.244 92.8981L155.351 93.0654L155.093 93.9362L156.517 94.3582ZM159.548 94.5365L158.636 95.7092L158.679 95.7425L158.724 95.7726L159.548 94.5365ZM160.439 96.0964L159.05 96.6233L159.051 96.6253L160.439 96.0964ZM162.356 101.311L160.96 101.82L160.963 101.829L160.967 101.837L162.356 101.311ZM164.852 107.818L163.469 108.36L163.472 108.369L163.476 108.378L164.852 107.818ZM169.041 116.954L169.705 118.283L171.065 117.603L170.354 116.26L169.041 116.954ZM165.208 116.687L163.843 117.272L163.871 117.339L163.907 117.403L165.208 116.687ZM162.579 110.18L163.957 109.626L163.574 108.671L162.544 108.695L162.579 110.18ZM163.056 107.284C162.508 105.986 161.317 102.857 159.471 97.855L156.684 98.8837C158.522 103.865 159.738 107.065 160.319 108.44L163.056 107.284ZM156.674 97.8821C155.19 102.155 154.031 105.264 153.19 107.235L155.923 108.401C156.806 106.331 157.993 103.141 159.481 98.8566L156.674 97.8821ZM154.507 109.303C156.295 109.362 157.681 109.392 158.657 109.392V106.421C157.731 106.421 156.384 106.392 154.606 106.333L154.507 109.303ZM158.657 109.392C160.055 109.392 161.096 109.378 161.758 109.346L161.617 106.378C161.031 106.406 160.051 106.421 158.657 106.421V109.392ZM157.944 108.783C157.343 108.783 155.924 108.754 153.66 108.695L153.581 111.665C155.834 111.724 157.296 111.755 157.944 111.755V108.783ZM152.249 109.608C152.1 109.966 151.773 110.755 151.268 111.973L154.012 113.111C154.518 111.892 154.844 111.106 154.992 110.751L152.249 109.608ZM151.256 112.002C150.778 113.228 150.386 114.267 150.082 115.117L152.88 116.117C153.171 115.303 153.552 114.293 154.024 113.082L151.256 112.002ZM150.088 115.101C149.776 115.943 149.51 116.774 149.289 117.593L152.158 118.365C152.354 117.64 152.592 116.896 152.874 116.133L150.088 115.101ZM150.923 116.507C150.105 116.396 149.651 116.25 149.442 116.14C149.347 116.09 149.377 116.085 149.438 116.165C149.515 116.266 149.58 116.423 149.58 116.598H146.609C146.609 117.723 147.38 118.413 148.061 118.771C148.728 119.122 149.589 119.325 150.524 119.451L150.923 116.507ZM149.58 116.598C149.58 116.642 149.575 116.592 149.628 116.398C149.676 116.221 149.757 115.98 149.879 115.668L147.112 114.586C146.848 115.26 146.609 115.989 146.609 116.598H149.58ZM149.858 115.719C150.155 115.035 150.645 113.906 151.329 112.331L148.603 111.148C147.92 112.723 147.43 113.852 147.133 114.535L149.858 115.719ZM151.324 112.343C152.046 110.718 152.724 109.092 153.356 107.465L150.587 106.388C149.972 107.97 149.312 109.553 148.608 111.136L151.324 112.343ZM153.357 107.464C155.673 101.494 157.209 97.2526 157.942 94.7803L155.093 93.9362C154.399 96.2772 152.905 100.414 150.587 106.389L153.357 107.464ZM156.791 95.8184C157.155 95.7502 157.609 95.7101 158.166 95.7101V92.7389C157.476 92.7389 156.831 92.788 156.244 92.8981L156.791 95.8184ZM158.166 95.7101C158.422 95.7101 158.584 95.7311 158.675 95.7516C158.771 95.7733 158.728 95.7811 158.636 95.7092L160.46 93.3638C159.781 92.8359 158.888 92.7389 158.166 92.7389V95.7101ZM158.724 95.7726C158.627 95.7081 158.588 95.6553 158.599 95.6683C158.606 95.6771 158.635 95.7151 158.682 95.7972C158.777 95.9642 158.902 96.2308 159.05 96.6233L161.828 95.5695C161.651 95.1004 161.463 94.6761 161.261 94.3231C161.081 94.0072 160.8 93.5856 160.372 93.3004L158.724 95.7726ZM159.051 96.6253C159.284 97.2368 159.919 98.9627 160.96 101.82L163.752 100.802C162.713 97.9542 162.07 96.2039 161.828 95.5675L159.051 96.6253ZM160.967 101.837C162.037 104.662 162.871 106.837 163.469 108.36L166.235 107.275C165.644 105.768 164.814 103.605 163.745 100.784L160.967 101.837ZM163.476 108.378C164.915 111.917 166.332 115.009 167.728 117.649L170.354 116.26C169.016 113.729 167.64 110.731 166.228 107.258L163.476 108.378ZM168.377 115.625C167.605 116.011 167.189 116.093 167.036 116.093V119.064C167.892 119.064 168.813 118.729 169.705 118.283L168.377 115.625ZM167.036 116.093C166.747 116.093 166.61 116.044 166.561 116.02C166.539 116.009 166.532 116.002 166.531 116.001C166.529 116 166.522 115.993 166.51 115.971L163.907 117.403C164.577 118.622 165.799 119.064 167.036 119.064V116.093ZM166.574 116.102C166.404 115.706 165.537 113.562 163.957 109.626L161.2 110.733C162.769 114.642 163.656 116.835 163.843 117.272L166.574 116.102ZM162.544 108.695C159.98 108.754 158.457 108.783 157.944 108.783V111.755C158.5 111.755 160.066 111.724 162.613 111.665L162.544 108.695ZM186.11 94.1354L185.667 92.7174L184.329 93.1356L184.669 94.4957L186.11 94.1354ZM187.135 105.857L185.758 105.3L187.135 105.857ZM181.832 115.528L182.963 116.491L182.973 116.479L182.983 116.467L181.832 115.528ZM180.183 117.043L179.518 115.715L180.183 117.043ZM177.375 117.266L175.92 117.569L176.116 118.508L177.053 118.716L177.375 117.266ZM173.408 104.52L172.024 105.058L172.025 105.061L173.408 104.52ZM168.64 95.4279L167.661 94.3098L166.438 95.3802L167.614 96.5025L168.64 95.4279ZM172.651 94.5811L171.657 95.6853L172.651 94.5811ZM173.676 96.0964L175.017 95.4585L175.006 95.4346L174.994 95.411L173.676 96.0964ZM176.84 104.297L175.434 104.777L175.435 104.78L176.84 104.297ZM179.782 113.656L178.348 114.047L179.127 116.903L180.952 114.572L179.782 113.656ZM184.194 105.055L182.801 104.538L182.797 104.548L184.194 105.055ZM186.553 95.5534C186.854 95.4593 187.249 95.3982 187.759 95.3982V92.427C187.021 92.427 186.317 92.5144 185.667 92.7174L186.553 95.5534ZM187.759 95.3982C188.052 95.3982 188.226 95.4255 188.315 95.449C188.406 95.4732 188.333 95.4735 188.224 95.3641L190.325 93.2632C189.609 92.5475 188.563 92.427 187.759 92.427V95.3982ZM188.224 95.3641C188.115 95.2548 188.115 95.1818 188.139 95.2732C188.163 95.3618 188.19 95.5367 188.19 95.829H191.161C191.161 95.0248 191.041 93.9789 190.325 93.2632L188.224 95.3641ZM188.19 95.829C188.19 98.0372 187.429 101.168 185.758 105.3L188.513 106.414C190.229 102.167 191.161 98.6123 191.161 95.829H188.19ZM185.758 105.3C184.093 109.418 182.392 112.491 180.681 114.589L182.983 116.467C184.956 114.048 186.79 110.674 188.513 106.414L185.758 105.3ZM180.701 114.565C180.024 115.359 179.641 115.653 179.518 115.715L180.847 118.372C181.556 118.018 182.273 117.301 182.963 116.491L180.701 114.565ZM179.518 115.715C179.413 115.767 179.067 115.87 178.311 115.87V118.841C179.219 118.841 180.121 118.735 180.847 118.372L179.518 115.715ZM178.311 115.87C178.032 115.87 177.833 115.846 177.697 115.816L177.053 118.716C177.452 118.805 177.876 118.841 178.311 118.841V115.87ZM178.829 116.964C178.035 113.145 176.684 108.814 174.792 103.978L172.025 105.061C173.876 109.792 175.17 113.959 175.92 117.569L178.829 116.964ZM174.793 103.981C173.846 101.546 172.958 99.5292 172.128 97.9467C171.313 96.3922 170.498 95.1481 169.665 94.3533L167.614 96.5025C168.088 96.9555 168.722 97.8507 169.497 99.3268C170.256 100.775 171.099 102.68 172.024 105.058L174.793 103.981ZM169.618 96.5459C170.378 95.8808 171.01 95.6656 171.537 95.6656V92.6944C170.102 92.6944 168.803 93.311 167.661 94.3098L169.618 96.5459ZM171.537 95.6656C171.61 95.6656 171.641 95.6763 171.646 95.678C171.648 95.6787 171.649 95.6791 171.649 95.6792C171.649 95.6794 171.65 95.6794 171.65 95.6795C171.65 95.6795 171.65 95.6798 171.651 95.6806C171.652 95.6813 171.654 95.6828 171.657 95.6853L173.645 93.4768C173.043 92.9351 172.304 92.6944 171.537 92.6944V95.6656ZM171.657 95.6853C171.743 95.7628 171.984 96.0625 172.358 96.7818L174.994 95.411C174.595 94.6447 174.153 93.9342 173.645 93.4768L171.657 95.6853ZM172.334 96.7342C173.158 98.468 174.191 101.137 175.434 104.777L178.246 103.817C176.993 100.148 175.917 97.3497 175.017 95.4585L172.334 96.7342ZM175.435 104.78C176.677 108.386 177.646 111.473 178.348 114.047L181.215 113.265C180.491 110.61 179.499 107.457 178.245 103.813L175.435 104.78ZM180.952 114.572C182.688 112.353 184.224 109.326 185.59 105.561L182.797 104.548C181.49 108.151 180.084 110.86 178.612 112.741L180.952 114.572ZM185.587 105.571C186.989 101.79 187.73 98.4132 187.73 95.4724H184.758C184.758 97.9393 184.132 100.951 182.801 104.538L185.587 105.571ZM187.73 95.4724C187.73 94.8659 187.68 94.2896 187.551 93.7751L184.669 94.4957C184.719 94.6943 184.758 95.0093 184.758 95.4724H187.73ZM197.562 114.369L198.635 113.341L197.562 114.369ZM197.562 97.1214L198.635 98.1493L197.562 97.1214ZM214.097 97.1214L213.024 98.1494L213.032 98.157L214.097 97.1214ZM214.097 114.369L213.032 113.334L213.024 113.341L214.097 114.369ZM210.353 97.9237L209.389 99.0536L209.395 99.0593L209.402 99.0649L210.353 97.9237ZM200.103 98.7259L199.001 97.7286L198.996 97.7344L198.991 97.7402L200.103 98.7259ZM198.721 109.69L197.303 110.134L198.721 109.69ZM201.261 113.567L200.281 114.683L201.261 113.567ZM211.601 112.765L212.732 113.728L212.741 113.718L211.601 112.765ZM205.807 116.093C202.694 116.093 200.359 115.14 198.635 113.341L196.49 115.397C198.866 117.877 202.028 119.064 205.807 119.064V116.093ZM198.635 113.341C196.904 111.535 195.973 109.066 195.973 105.768H193.001C193.001 109.659 194.12 112.925 196.49 115.397L198.635 113.341ZM195.973 105.768C195.973 102.435 196.906 99.953 198.635 98.1493L196.49 96.0936C194.118 98.5684 193.001 101.85 193.001 105.768H195.973ZM198.635 98.1493C200.359 96.3506 202.694 95.3982 205.807 95.3982V92.427C202.028 92.427 198.866 93.6138 196.49 96.0936L198.635 98.1493ZM205.807 95.3982C208.955 95.3982 211.303 96.3532 213.024 98.1493L215.169 96.0936C212.79 93.6112 209.612 92.427 205.807 92.427V95.3982ZM213.032 98.157C214.786 99.9616 215.731 102.441 215.731 105.768H218.702C218.702 101.844 217.567 98.5598 215.162 96.0859L213.032 98.157ZM215.731 105.768C215.731 109.06 214.788 111.527 213.032 113.334L215.162 115.405C217.565 112.933 218.702 109.665 218.702 105.768H215.731ZM213.024 113.341C211.303 115.137 208.955 116.093 205.807 116.093V119.064C209.612 119.064 212.79 117.88 215.169 115.397L213.024 113.341ZM215.137 106.392C215.137 104.558 214.879 102.826 214.35 101.206L211.526 102.129C211.948 103.421 212.166 104.838 212.166 106.392H215.137ZM214.35 101.206C213.783 99.4685 212.753 97.9898 211.304 96.7824L209.402 99.0649C210.449 99.9374 211.143 100.955 211.526 102.129L214.35 101.206ZM211.318 96.7938C209.8 95.498 207.945 94.8782 205.852 94.8782V97.8494C207.324 97.8494 208.47 98.2695 209.389 99.0536L211.318 96.7938ZM205.852 94.8782C203.087 94.8782 200.748 95.8 199.001 97.7286L201.204 99.7231C202.309 98.5023 203.803 97.8494 205.852 97.8494V94.8782ZM198.991 97.7402C197.316 99.629 196.522 102.004 196.522 104.743H199.493C199.493 102.609 200.096 100.972 201.214 99.7116L198.991 97.7402ZM196.522 104.743C196.522 106.658 196.778 108.459 197.303 110.134L200.138 109.245C199.713 107.89 199.493 106.393 199.493 104.743H196.522ZM197.303 110.134C197.862 111.915 198.863 113.438 200.281 114.683L202.241 112.451C201.223 111.557 200.531 110.495 200.138 109.245L197.303 110.134ZM200.281 114.683C201.803 116.02 203.68 116.657 205.807 116.657V113.686C204.31 113.686 203.156 113.254 202.241 112.451L200.281 114.683ZM205.807 116.657C208.65 116.657 211.03 115.726 212.732 113.728L210.47 111.801C209.438 113.013 207.956 113.686 205.807 113.686V116.657ZM212.741 113.718C214.378 111.76 215.137 109.273 215.137 106.392H212.166C212.166 108.74 211.557 110.502 210.461 111.812L212.741 113.718ZM238.54 114.146L237.489 115.197V115.197L238.54 114.146ZM241.615 115.038L242.944 114.373L242.474 113.433L241.431 113.564L241.615 115.038ZM236.534 116.642L235.596 117.794L235.609 117.805L235.622 117.815L236.534 116.642ZM234.217 113.879L232.948 114.652L232.953 114.659L232.957 114.666L234.217 113.879ZM232.479 110.848L231.131 111.474L231.145 111.503L231.16 111.532L232.479 110.848ZM231.053 107.684L232.411 107.084L232.104 106.387L231.359 106.23L231.053 107.684ZM230.518 105.456L230.847 104.007L229.554 103.713L229.116 104.965L230.518 105.456ZM235.554 104.431L236.586 105.499L236.595 105.49L236.604 105.481L235.554 104.431ZM228.378 96.4529L228.296 94.9696L226.766 95.0546L226.898 96.5816L228.378 96.4529ZM229.225 117.132L229.644 118.558L231.085 118.134L230.646 116.698L229.225 117.132ZM225.615 116.91L224.511 117.903L224.537 117.932L224.565 117.96L225.615 116.91ZM225.259 112.676L226.744 112.706L225.259 112.676ZM224.813 94.3137L224.569 92.8483L223.114 93.0908L223.346 94.5475L224.813 94.3137ZM238.807 105.411L237.716 104.403L237.709 104.411L237.702 104.419L238.807 105.411ZM234.618 107.729L234.298 106.278L232.404 106.695L233.301 108.415L234.618 107.729ZM237.489 115.197C238.363 116.07 239.437 116.613 240.679 116.613V113.641C240.377 113.641 240.024 113.53 239.59 113.096L237.489 115.197ZM240.679 116.613C240.937 116.613 241.344 116.569 241.799 116.512L241.431 113.564C241.201 113.592 241.02 113.613 240.884 113.626C240.735 113.64 240.679 113.641 240.679 113.641V116.613ZM240.286 115.702C240.421 115.972 240.442 116.13 240.442 116.197H243.413C243.413 115.55 243.225 114.935 242.944 114.373L240.286 115.702ZM240.442 116.197C240.442 116.152 240.458 116.05 240.528 115.95C240.589 115.863 240.634 115.858 240.563 115.892C240.382 115.978 239.925 116.093 239.03 116.093V119.064C240.067 119.064 241.058 118.948 241.842 118.574C242.254 118.377 242.661 118.085 242.964 117.652C243.275 117.207 243.413 116.702 243.413 116.197H240.442ZM239.03 116.093C238.556 116.093 238.037 115.929 237.446 115.47L235.622 117.815C236.637 118.604 237.781 119.064 239.03 119.064V116.093ZM237.473 115.491C236.833 114.969 236.162 114.188 235.477 113.092L232.957 114.666C233.758 115.947 234.631 117.008 235.596 117.794L237.473 115.491ZM235.485 113.106C234.751 111.902 234.191 110.924 233.798 110.165L231.16 111.532C231.598 112.377 232.197 113.42 232.948 114.652L235.485 113.106ZM233.826 110.223C233.445 109.402 232.974 108.357 232.411 107.084L229.694 108.284C230.26 109.567 230.74 110.631 231.131 111.474L233.826 110.223ZM231.359 106.23C231.255 106.209 231.359 106.207 231.494 106.349C231.565 106.423 231.62 106.512 231.654 106.606C231.687 106.696 231.691 106.764 231.691 106.793H228.72C228.72 107.346 228.895 107.927 229.34 108.395C229.758 108.835 230.285 109.041 230.746 109.138L231.359 106.23ZM231.691 106.793C231.691 106.801 231.692 106.738 231.73 106.573C231.767 106.417 231.827 106.21 231.92 105.946L229.116 104.965C228.9 105.581 228.72 106.228 228.72 106.793H231.691ZM230.188 106.904C230.91 107.068 231.59 107.164 232.211 107.164V104.193C231.881 104.193 231.433 104.14 230.847 104.007L230.188 106.904ZM232.211 107.164C233.904 107.164 235.408 106.637 236.586 105.499L234.522 103.362C233.977 103.888 233.252 104.193 232.211 104.193V107.164ZM236.604 105.481C237.798 104.288 238.332 102.722 238.332 100.954H235.361C235.361 102.098 235.033 102.85 234.503 103.38L236.604 105.481ZM238.332 100.954C238.332 98.9902 237.786 97.2149 236.287 96.138L234.553 98.5506C234.956 98.8404 235.361 99.4718 235.361 100.954H238.332ZM236.287 96.138C234.964 95.187 233.135 94.8336 231.053 94.8336V97.8048C232.892 97.8048 233.975 98.1348 234.553 98.5506L236.287 96.138ZM231.053 94.8336C230.82 94.8336 229.866 94.8824 228.296 94.9696L228.461 97.9362C229.262 97.8917 229.883 97.8585 230.324 97.8364C230.546 97.8253 230.719 97.8172 230.847 97.8119C230.911 97.8092 230.961 97.8074 230.999 97.8062C231.04 97.8049 231.054 97.8048 231.053 97.8048V94.8336ZM226.898 96.5816C227.011 97.8775 227.071 100.152 227.071 103.45H230.042C230.042 100.152 229.983 97.7618 229.858 96.3242L226.898 96.5816ZM227.071 103.45V110.314H230.042V103.45H227.071ZM227.071 110.314C227.071 113.432 227.291 115.89 227.805 117.567L230.646 116.698C230.268 115.463 230.042 113.375 230.042 110.314H227.071ZM228.806 115.707C228.488 115.801 227.991 115.87 227.264 115.87V118.841C228.142 118.841 228.952 118.761 229.644 118.558L228.806 115.707ZM227.264 115.87C226.945 115.87 226.747 115.839 226.638 115.81C226.528 115.78 226.577 115.77 226.666 115.859L224.565 117.96C225.305 118.7 226.386 118.841 227.264 118.841V115.87ZM226.719 115.916C226.784 115.988 226.775 116.02 226.751 115.928C226.726 115.835 226.7 115.666 226.7 115.394H223.729C223.729 116.214 223.867 117.188 224.511 117.903L226.719 115.916ZM226.7 115.394C226.7 115.056 226.714 114.168 226.744 112.706L223.773 112.645C223.744 114.095 223.729 115.019 223.729 115.394H226.7ZM226.744 112.706C226.774 111.246 226.789 110.091 226.789 109.244H223.818C223.818 110.061 223.803 111.193 223.773 112.645L226.744 112.706ZM226.789 109.244V102.291H223.818V109.244H226.789ZM226.789 102.291C226.789 98.9837 226.624 96.2381 226.28 94.0798L223.346 94.5475C223.656 96.4895 223.818 99.0623 223.818 102.291H226.789ZM225.057 95.7791C226.56 95.5285 228.347 95.3982 230.429 95.3982V92.427C228.231 92.427 226.275 92.564 224.569 92.8483L225.057 95.7791ZM230.429 95.3982C233.628 95.3982 235.763 95.9671 237.063 96.8784C238.267 97.7222 238.926 98.9791 238.926 100.91H241.897C241.897 98.1756 240.892 95.9339 238.769 94.4453C236.741 93.0243 233.884 92.427 230.429 92.427V95.3982ZM238.926 100.91C238.926 102.445 238.49 103.565 237.716 104.403L239.899 106.419C241.264 104.94 241.897 103.058 241.897 100.91H238.926ZM237.702 104.419C236.9 105.312 235.796 105.948 234.298 106.278L234.938 109.179C236.946 108.737 238.635 107.828 239.913 106.403L237.702 104.419ZM233.301 108.415C234.215 110.169 235.012 111.605 235.69 112.715C236.35 113.794 236.954 114.661 237.489 115.197L239.59 113.096C239.324 112.829 238.873 112.226 238.225 111.166C237.596 110.136 236.834 108.765 235.935 107.042L233.301 108.415Z" fill="white" mask="url(#path-3-outside-1_85_314)"/>
</svg>
